<svg viewBox="0 0 61.4893 26.3496" xmlns="http://www.w3.org/2000/svg" xmlns:xlink="http://www.w3.org/1999/xlink" width="61.4892578" height="26.3496094" fill="none" customFrame="#000000">
	<path id="矢量 8" d="M16.0928 12.6738C18.999 13.7051 20.4521 15.7324 20.4521 18.7559C20.4521 21.1289 19.582 22.9893 17.8418 24.3369C16.1016 25.6787 13.6582 26.3496 10.5117 26.3496L0 26.3496L0 0L9.54492 0C12.3516 0 14.6367 0.641602 16.4004 1.9248C18.1641 3.20801 19.0459 5.0127 19.0459 7.33887C19.0459 9.76465 18.0615 11.543 16.0928 12.6738ZM5.11523 4.53516L5.11523 10.7578L9.03516 10.7578C10.4531 10.7578 11.5752 10.4648 12.4014 9.87891C13.2334 9.29297 13.6494 8.50781 13.6494 7.52344C13.6494 6.5625 13.2393 5.82422 12.4189 5.30859C11.6045 4.79297 10.4766 4.53516 9.03516 4.53516L5.11523 4.53516ZM10.0811 21.8145C11.6689 21.8145 12.8877 21.5273 13.7373 20.9531C14.5869 20.373 15.0117 19.5557 15.0117 18.501C15.0117 17.4463 14.5869 16.6201 13.7373 16.0225C12.8877 15.4189 11.6572 15.1172 10.0459 15.1172L5.11523 15.1172L5.11523 21.8145L10.0811 21.8145Z" fill="rgb(255,160,48)" fill-opacity="0.898039222" fill-rule="nonzero" />
	<path id="矢量 8" d="M52.0586 13.2451L56.0225 7.69922L61.4893 7.69922L54.6514 16.9189L61.4893 26.3496L55.7676 26.3496L51.8477 20.7686L47.9541 26.3496L42.4082 26.3496L49.2549 17.1299L42.4082 7.69922L48.209 7.69922L52.0586 13.2451Z" fill="rgb(255,160,48)" fill-opacity="0.898039222" fill-rule="nonzero" />
	<path id="矢量 8" d="M52.0586 13.2451L56.0225 7.69922L61.4893 7.69922L54.6514 16.9189L61.4893 26.3496L55.7676 26.3496L51.8477 20.7686L47.9541 26.3496L42.4082 26.3496L49.2549 17.1299L42.4082 7.69922L48.209 7.69922L52.0586 13.2451Z" fill="rgb(255,160,48)" fill-opacity="0.898039222" fill-rule="nonzero" />
	<path id="矢量 8" d="M32.4814 7.84961C35.5122 7.84961 37.0273 7.84961 38.2075 8.3844C39.5337 8.98523 40.5957 10.0475 41.1968 11.3734C41.7314 12.5537 41.7314 14.069 41.7314 17.0996C41.7314 20.1302 41.7314 21.6455 41.1968 22.8258C40.5957 24.1517 39.5337 25.214 38.2075 25.8148C37.0273 26.3496 35.5122 26.3496 32.4814 26.3496C29.4507 26.3496 27.9355 26.3496 26.7554 25.8148C25.4292 25.214 24.3672 24.1517 23.7661 22.8258C23.2314 21.6455 23.2314 20.1302 23.2314 17.0996C23.2314 14.069 23.2314 12.5537 23.7661 11.3734C24.3672 10.0475 25.4292 8.98523 26.7554 8.3844C27.9355 7.84961 29.4507 7.84961 32.4814 7.84961ZM35.8662 12.6221C35.3315 12.3496 34.6313 12.3496 33.2314 12.3496L31.7314 12.3496C30.3315 12.3496 29.6313 12.3496 29.0967 12.6221C28.626 12.8618 28.2437 13.2443 28.0039 13.7146C27.7314 14.2494 27.7314 14.9495 27.7314 16.3496L27.7314 17.8496C27.7314 19.2498 27.7314 19.9498 28.0039 20.4846C28.2437 20.955 28.626 21.3374 29.0967 21.5771C29.6313 21.8496 30.3315 21.8496 31.7314 21.8496L33.2314 21.8496C34.6313 21.8496 35.3315 21.8496 35.8662 21.5771C36.3369 21.3374 36.7192 20.955 36.959 20.4846C37.2314 19.9498 37.2314 19.2498 37.2314 17.8496L37.2314 16.3496C37.2314 14.9495 37.2314 14.2494 36.959 13.7146C36.7192 13.2443 36.3369 12.8618 35.8662 12.6221Z" fill="rgb(255,160,48)" fill-opacity="0.898039222" fill-rule="evenodd" />
	<path id="矢量 8" d="M32.4814 7.84961C35.5122 7.84961 37.0273 7.84961 38.2075 8.3844C39.5337 8.98523 40.5957 10.0475 41.1968 11.3734C41.7314 12.5537 41.7314 14.069 41.7314 17.0996C41.7314 20.1302 41.7314 21.6455 41.1968 22.8258C40.5957 24.1517 39.5337 25.214 38.2075 25.8148C37.0273 26.3496 35.5122 26.3496 32.4814 26.3496C29.4507 26.3496 27.9355 26.3496 26.7554 25.8148C25.4292 25.214 24.3672 24.1517 23.7661 22.8258C23.2314 21.6455 23.2314 20.1302 23.2314 17.0996C23.2314 14.069 23.2314 12.5537 23.7661 11.3734C24.3672 10.0475 25.4292 8.98523 26.7554 8.3844C27.9355 7.84961 29.4507 7.84961 32.4814 7.84961ZM35.8662 12.6221C35.3315 12.3496 34.6313 12.3496 33.2314 12.3496L31.7314 12.3496C30.3315 12.3496 29.6313 12.3496 29.0967 12.6221C28.626 12.8618 28.2437 13.2443 28.0039 13.7146C27.7314 14.2494 27.7314 14.9495 27.7314 16.3496L27.7314 17.8496C27.7314 19.2498 27.7314 19.9498 28.0039 20.4846C28.2437 20.955 28.626 21.3374 29.0967 21.5771C29.6313 21.8496 30.3315 21.8496 31.7314 21.8496L33.2314 21.8496C34.6313 21.8496 35.3315 21.8496 35.8662 21.5771C36.3369 21.3374 36.7192 20.955 36.959 20.4846C37.2314 19.9498 37.2314 19.2498 37.2314 17.8496L37.2314 16.3496C37.2314 14.9495 37.2314 14.2494 36.959 13.7146C36.7192 13.2443 36.3369 12.8618 35.8662 12.6221Z" fill="rgb(255,160,48)" fill-opacity="0.898039222" fill-rule="evenodd" />
</svg>
