<svg width="161.489258" height="42.000000" viewBox="0 0 161.489 42" fill="none" xmlns="http://www.w3.org/2000/svg" xmlns:xlink="http://www.w3.org/1999/xlink">
	<desc>
			Created with Pixso.
	</desc>
	<defs/>
	<rect id="组合 35" width="161.489258" height="42.000000" fill="#FFFFFF" fill-opacity="0"/>
	<path id="矢量 8" d="M116.09 20.49C118.99 21.53 120.45 23.55 120.45 26.58C120.45 28.95 119.58 30.81 117.84 32.16C116.1 33.5 113.65 34.17 110.51 34.17L100 34.17L100 7.82L109.54 7.82C112.35 7.82 114.63 8.46 116.4 9.75C118.16 11.03 119.04 12.83 119.04 15.16C119.04 17.58 118.06 19.36 116.09 20.49ZM105.11 12.36L105.11 18.58L109.03 18.58C110.45 18.58 111.57 18.29 112.4 17.7C113.23 17.11 113.64 16.33 113.64 15.34C113.64 14.38 113.23 13.64 112.41 13.13C111.6 12.61 110.47 12.36 109.03 12.36L105.11 12.36ZM110.08 29.63C111.66 29.63 112.88 29.35 113.73 28.77C114.58 28.19 115.01 27.38 115.01 26.32C115.01 25.27 114.58 24.44 113.73 23.84C112.88 23.24 111.65 22.94 110.04 22.94L105.11 22.94L105.11 29.63L110.08 29.63Z" fill="#FFA030" fill-opacity="0.898039" fill-rule="nonzero"/>
	<path id="矢量 8" d="M152.05 21.07L156.02 15.52L161.48 15.52L154.65 24.74L161.48 34.17L155.76 34.17L151.84 28.59L147.95 34.17L142.4 34.17L149.25 24.95L142.4 15.52L148.2 15.52L152.05 21.07Z" fill="#FFA030" fill-opacity="0.898039" fill-rule="nonzero"/>
	<path id="矢量 8" d="M132.48 15.67C135.51 15.67 137.02 15.67 138.2 16.2C139.53 16.81 140.59 17.87 141.19 19.19C141.73 20.37 141.73 21.89 141.73 24.92C141.73 27.95 141.73 29.47 141.19 30.65C140.59 31.97 139.53 33.03 138.2 33.64C137.02 34.17 135.51 34.17 132.48 34.17C129.45 34.17 127.93 34.17 126.75 33.64C125.42 33.03 124.36 31.97 123.76 30.65C123.23 29.47 123.23 27.95 123.23 24.92C123.23 21.89 123.23 20.37 123.76 19.19C124.36 17.87 125.42 16.81 126.75 16.2C127.93 15.67 129.45 15.67 132.48 15.67ZM135.86 20.44C135.33 20.17 134.63 20.17 133.23 20.17L131.73 20.17C130.33 20.17 129.63 20.17 129.09 20.44C128.62 20.68 128.24 21.06 128 21.53C127.73 22.07 127.73 22.77 127.73 24.17L127.73 25.67C127.73 27.07 127.73 27.77 128 28.3C128.24 28.78 128.62 29.16 129.09 29.4C129.63 29.67 130.33 29.67 131.73 29.67L133.23 29.67C134.63 29.67 135.33 29.67 135.86 29.4C136.33 29.16 136.71 28.78 136.95 28.3C137.23 27.77 137.23 27.07 137.23 25.67L137.23 24.17C137.23 22.77 137.23 22.07 136.95 21.53C136.71 21.06 136.33 20.68 135.86 20.44Z" fill="#FFA030" fill-opacity="0.898039" fill-rule="evenodd"/>
	<path id="Clash" d="M26.85 33L31.86 33L31.86 5.6L26.85 5.6L26.85 33ZM87.87 14.78Q86.38 13.88 84.35 13.88Q81.92 13.88 80.31 15.02Q79.34 15.72 78.66 16.83L78.66 5.6L73.65 5.6L73.65 33L78.66 33L78.66 23.63Q78.66 21.11 79.75 19.73Q80.27 19.07 80.96 18.72Q81.71 18.34 82.65 18.34Q83.68 18.34 84.4 18.82Q86.03 19.9 86.03 23.46L86.03 33L91.04 33L91.04 21.83Q91.04 17.95 89.22 15.92Q88.62 15.24 87.87 14.78ZM16.74 28Q15.56 28.64 14.03 28.64Q12.72 28.64 11.6 28.18Q10.99 27.94 10.44 27.56Q10.39 27.53 10.35 27.5Q8.83 26.43 7.93 24.47Q7.02 22.45 7.02 19.79Q7.02 17.12 7.93 15.13Q8.82 13.19 10.33 12.12Q10.38 12.08 10.44 12.04Q11.01 11.65 11.63 11.4Q12.74 10.96 14.03 10.96Q15.53 10.96 16.71 11.58Q17.03 11.75 17.33 11.97Q18.72 12.98 19.54 14.78L23.9 12.26Q23.64 11.54 23.26 10.89Q22.23 9.14 20.33 7.88Q20.11 7.74 19.88 7.6Q17.43 6.17 14.15 6.17Q11.88 6.17 9.87 6.88Q8.77 7.27 7.75 7.87Q6.79 8.43 5.96 9.15Q4.3 10.59 3.18 12.66Q1.51 15.75 1.51 19.79Q1.51 23.82 3.19 26.93Q4.4 29.14 6.19 30.63Q6.93 31.25 7.76 31.74Q8.72 32.3 9.75 32.67Q11.81 33.43 14.15 33.43Q17.46 33.43 19.92 31.98Q20.13 31.86 20.33 31.72Q22.23 30.47 23.26 28.71Q23.64 28.06 23.9 27.34L19.54 24.82Q18.72 26.62 17.33 27.63Q17.04 27.84 16.74 28ZM49.62 15.44Q47.6 13.88 44.38 13.88Q41.58 13.88 39.49 15.08Q38.23 15.81 37.37 16.85Q36.79 17.54 36.39 18.38L39.95 20.43Q40.59 19.19 41.61 18.58Q42.6 17.98 43.95 17.98Q45.33 17.98 46.17 18.65Q47.42 19.65 47.48 22.12Q45.43 21.47 43.48 21.47Q41.32 21.47 39.52 22.23Q37.93 22.9 36.91 24.07Q36.78 24.22 36.66 24.37Q36.31 24.84 36.07 25.36Q35.6 26.39 35.6 27.63Q35.6 29.03 36.16 30.14Q36.33 30.45 36.53 30.75Q36.77 31.08 37.06 31.38Q37.88 32.24 39.07 32.75Q40.67 33.43 42.62 33.43Q44.49 33.43 45.8 32.8Q46.24 32.59 46.62 32.31Q47.39 31.74 47.95 30.87Q48.05 31.38 48.11 32.05Q48.16 32.71 48.2 33L52.41 33L52.41 22.12Q52.41 18.47 50.61 16.37Q50.45 16.19 50.29 16.02Q49.97 15.71 49.62 15.44ZM69.99 30.13Q70.63 28.97 70.63 27.45Q70.63 25.71 69.78 24.63Q69.75 24.59 69.72 24.56Q69.13 23.83 68.38 23.35Q67.99 23.1 67.57 22.92Q66.31 22.38 64.36 21.83Q62.53 21.33 61.66 20.88Q61.13 20.6 60.93 20.17Q60.8 19.9 60.8 19.57Q60.8 19.2 60.95 18.91Q61.11 18.61 61.44 18.4Q62.09 17.98 63.17 17.98Q64.44 17.98 65.34 18.55Q66.26 19.14 66.81 20.32L70.45 18.27Q70.29 17.66 70 17.12Q69.34 15.91 68 15.08Q66.06 13.88 63.24 13.88Q61.2 13.88 59.46 14.6Q58.08 15.18 57.14 16.18Q56.91 16.42 56.71 16.69Q56.43 17.07 56.22 17.48Q55.68 18.57 55.68 19.93Q55.68 21.41 56.39 22.39Q56.47 22.51 56.56 22.62Q57.12 23.25 57.79 23.7Q58.2 23.97 58.66 24.18Q59.86 24.72 61.77 25.29Q63.68 25.83 64.58 26.32Q65.13 26.61 65.34 27.06Q65.48 27.35 65.48 27.7Q65.48 28.08 65.32 28.37Q65.15 28.7 64.79 28.93Q64.11 29.36 62.96 29.36Q61.63 29.36 60.58 28.81Q60.42 28.72 60.26 28.62Q59.82 28.34 59.47 27.98Q58.9 27.38 58.57 26.55L54.93 28.67Q55.22 29.54 55.72 30.25Q56.52 31.39 57.83 32.17Q59.97 33.43 62.93 33.43Q66.35 33.43 68.48 31.83Q69.45 31.1 69.99 30.13ZM44.35 25.01Q45.68 25.01 47.48 25.44L47.48 26.16Q47.48 27.07 47.09 27.76Q46.79 28.29 46.25 28.7Q45.82 29.02 45.34 29.23Q44.46 29.61 43.41 29.61Q42.18 29.61 41.41 29.04Q41.1 28.81 40.91 28.5Q40.64 28.04 40.64 27.41Q40.64 26.84 40.88 26.39Q41.12 25.95 41.6 25.64Q42.58 25.01 44.35 25.01Z" fill="#000000" fill-opacity="0.898039" fill-rule="evenodd"/>
</svg>
