<svg viewBox="0 0 161.489 42" xmlns="http://www.w3.org/2000/svg" xmlns:xlink="http://www.w3.org/1999/xlink" width="161.489258" height="42" fill="none" customFrame="#000000">
	<rect id="组合 35" width="161.489258" height="42" x="0" y="0" fill="rgb(255,255,255)" fill-opacity="0" />
	<path id="矢量 8" d="M119.426 22.8839Q118.337 21.2954 116.093 20.499Q117.375 19.7623 118.101 18.6593L118.101 18.6592Q119.046 17.2224 119.046 15.1641Q119.046 13.1477 118.162 11.6538L118.162 11.6537Q117.517 10.5625 116.4 9.75Q113.755 7.8252 109.545 7.8252L100 7.8252L100 34.1748L110.512 34.1748Q115.231 34.1748 117.842 32.1621Q118.895 31.3463 119.524 30.2799Q120.452 28.704 120.452 26.5811Q120.452 24.3808 119.426 22.8839ZM105.115 18.583L105.115 12.3604L109.035 12.3604Q111.197 12.3604 112.419 13.1338Q113.045 13.5273 113.353 14.0938Q113.649 14.6407 113.649 15.3486Q113.649 16.0291 113.384 16.5827Q113.074 17.2303 112.401 17.7041Q111.162 18.583 109.035 18.583L105.115 18.583ZM152.059 21.0703L156.022 15.5244L161.489 15.5244L154.651 24.7441L161.489 34.1748L155.768 34.1748L151.848 28.5938L147.954 34.1748L142.408 34.1748L149.255 24.9551L142.408 15.5244L148.209 15.5244L152.059 21.0703ZM138.208 16.2096C137.027 15.6748 135.512 15.6748 132.481 15.6748C129.451 15.6748 127.936 15.6748 126.755 16.2096C125.429 16.8104 124.367 17.8727 123.766 19.1986C123.231 20.3789 123.231 21.8942 123.231 24.9248C123.231 27.9554 123.231 29.4707 123.766 30.651C124.367 31.9769 125.429 33.0392 126.755 33.64C127.936 34.1748 129.451 34.1748 132.481 34.1748C135.512 34.1748 137.027 34.1748 138.208 33.64C139.534 33.0392 140.596 31.9769 141.197 30.651C141.731 29.4707 141.731 27.9554 141.731 24.9248C141.731 21.8942 141.731 20.3789 141.197 19.1986C140.596 17.8727 139.534 16.8104 138.208 16.2096ZM133.231 20.1748C134.631 20.1748 135.332 20.1748 135.866 20.4473C136.337 20.687 136.719 21.0695 136.959 21.5398C137.231 22.0746 137.231 22.7747 137.231 24.1748L137.231 25.6748C137.231 27.075 137.231 27.775 136.959 28.3098C136.719 28.7802 136.337 29.1626 135.866 29.4023C135.332 29.6748 134.631 29.6748 133.231 29.6748L131.731 29.6748C130.332 29.6748 129.631 29.6748 129.097 29.4023C128.626 29.1626 128.244 28.7802 128.004 28.3098C127.731 27.775 127.731 27.075 127.731 25.6748L127.731 24.1748C127.731 22.7747 127.731 22.0746 128.004 21.5398C128.244 21.0695 128.626 20.687 129.097 20.4473C129.631 20.1748 130.332 20.1748 131.731 20.1748L133.231 20.1748ZM113.737 28.7783Q112.463 29.6396 110.081 29.6396L105.115 29.6396L105.115 22.9424L110.046 22.9424Q112.463 22.9424 113.737 23.8477Q114.352 24.2798 114.67 24.8713L114.67 24.8714Q115.012 25.5068 115.012 26.3262Q115.012 27.1623 114.656 27.7996L114.656 27.7997Q114.338 28.3681 113.737 28.7783Z" fill="rgb(10,89,247)" fill-opacity="0.898039222" fill-rule="evenodd" />
	<path id="" d="M14.0361 28.6406C15.3135 28.6406 16.4121 28.3066 17.332 27.6387C18.2578 26.9648 18.9961 26.0273 19.5469 24.8262L23.9062 27.3486C23.2559 29.124 22.0664 30.583 20.3379 31.7256C18.6094 32.8623 16.5469 33.4307 14.1504 33.4307C11.8184 33.4307 9.69141 32.8682 7.76953 31.7432C5.85352 30.6123 4.33008 29.0098 3.19922 26.9355C2.07422 24.8613 1.51172 22.4795 1.51172 19.79C1.51172 17.1006 2.06836 14.7246 3.18164 12.6621C4.30078 10.5996 5.82422 9.00293 7.75195 7.87207C9.68555 6.74121 11.8184 6.17578 14.1504 6.17578C16.5469 6.17578 18.6094 6.74707 20.3379 7.88965C22.0664 9.03223 23.2559 10.4912 23.9062 12.2666L19.5469 14.7803C18.9961 13.585 18.2578 12.6504 17.332 11.9766C16.4121 11.3027 15.3135 10.9658 14.0361 10.9658C12.6943 10.9658 11.4961 11.3262 10.4414 12.0469C9.38672 12.7676 8.55176 13.7959 7.93652 15.1318C7.32715 16.4619 7.02246 18.0146 7.02246 19.79C7.02246 21.5654 7.32715 23.127 7.93652 24.4746C8.55176 25.8164 9.38672 26.8477 10.4414 27.5684C11.4961 28.2832 12.6943 28.6406 14.0361 28.6406ZM31.8637 33L26.8539 33L26.8539 5.60449L31.8637 5.60449L31.8637 33ZM44.3857 13.8838C46.9052 13.8838 48.874 14.5986 50.2919 16.0283C51.7099 17.4521 52.4189 19.4854 52.4189 22.1279L52.4189 33L48.2001 33C48.1767 32.8066 48.1474 32.4902 48.1122 32.0508C48.0771 31.6055 48.0243 31.2129 47.954 30.873C47.4033 31.7402 46.6884 32.3848 45.8095 32.8066C44.9365 33.2227 43.8759 33.4307 42.6279 33.4307C41.3271 33.4307 40.1435 33.2051 39.0771 32.7539C38.0107 32.2969 37.164 31.6289 36.537 30.75C35.916 29.8711 35.6054 28.834 35.6054 27.6387C35.6054 26.3906 35.9599 25.3037 36.6689 24.3779C37.3779 23.4521 38.33 22.7373 39.5253 22.2334C40.7265 21.7295 42.0478 21.4775 43.4892 21.4775C44.7841 21.4775 46.1171 21.6943 47.4882 22.1279C47.412 19.3682 46.2343 17.9883 43.955 17.9883C42.1327 17.9883 40.7997 18.8027 39.956 20.4316L36.3964 18.3838C37.0702 16.9893 38.1015 15.8906 39.4902 15.0879C40.8847 14.2852 42.5165 13.8838 44.3857 13.8838ZM47.4882 25.4414C46.287 25.1543 45.2411 25.0107 44.3505 25.0107C43.1728 25.0107 42.2587 25.2217 41.6083 25.6436C40.9638 26.0596 40.6415 26.6514 40.6415 27.4189C40.6415 28.1162 40.8993 28.6582 41.415 29.0449C41.9306 29.4258 42.5986 29.6162 43.4189 29.6162C44.497 29.6162 45.4433 29.3115 46.2577 28.7021C47.0781 28.0869 47.4882 27.2402 47.4882 26.1621L47.4882 25.4414ZM70.6311 27.4541C70.6311 29.3057 69.9162 30.7646 68.4865 31.8311C67.0627 32.8975 65.2112 33.4307 62.9319 33.4307C60.9631 33.4307 59.2639 33.0117 57.8342 32.1738C56.4045 31.3301 55.4377 30.1641 54.9338 28.6758L58.5725 26.5576C58.9299 27.4424 59.4924 28.1309 60.26 28.623C61.0334 29.1152 61.9358 29.3613 62.967 29.3613C63.7346 29.3613 64.344 29.2178 64.7951 28.9307C65.2522 28.6436 65.4807 28.2363 65.4807 27.709C65.4807 27.1055 65.1819 26.6426 64.5842 26.3203C63.9865 25.998 63.049 25.6553 61.7717 25.292C60.5002 24.9111 59.4631 24.542 58.6604 24.1846C57.8576 23.8213 57.1604 23.2998 56.5686 22.6201C55.9826 21.9346 55.6897 21.0381 55.6897 19.9307C55.6897 18.6826 56.0324 17.6045 56.718 16.6963C57.4035 15.7822 58.3205 15.085 59.469 14.6045C60.6233 14.124 61.883 13.8838 63.2483 13.8838C65.1233 13.8838 66.7082 14.2852 68.0032 15.0879C69.2981 15.8906 70.1155 16.9541 70.4553 18.2783L66.8166 20.3262C66.0959 18.7676 64.883 17.9883 63.178 17.9883C62.4573 17.9883 61.8801 18.126 61.4465 18.4014C61.0188 18.6768 60.8049 19.0664 60.8049 19.5703C60.8049 20.1445 61.092 20.584 61.6662 20.8887C62.2463 21.1875 63.1457 21.5039 64.3645 21.8379C65.6653 22.2012 66.7346 22.5645 67.5725 22.9277C68.4104 23.2852 69.1282 23.8301 69.7258 24.5625C70.3293 25.2891 70.6311 26.2529 70.6311 27.4541ZM84.3502 13.8838C86.3892 13.8838 88.0152 14.5635 89.2281 15.9229C90.441 17.2764 91.0474 19.248 91.0474 21.8379L91.0474 33L86.0377 33L86.0377 23.4639C86.0377 20.0537 84.9097 18.3486 82.6539 18.3486C81.4527 18.3486 80.4859 18.8115 79.7535 19.7373C79.0269 20.6572 78.6637 21.958 78.6637 23.6396L78.6637 33L73.6539 33L73.6539 5.60449L78.6637 5.60449L78.6637 16.8369C79.859 14.8682 81.7545 13.8838 84.3502 13.8838Z" fill="rgb(0,0,0)" fill-opacity="0.898039222" fill-rule="nonzero" />
</svg>
