<svg viewBox="0 0 94 42" xmlns="http://www.w3.org/2000/svg" xmlns:xlink="http://www.w3.org/1999/xlink" width="94" height="42" fill="none" customFrame="#000000">
	<path id="" d="M14.0361 28.6406C15.3135 28.6406 16.4121 28.3066 17.332 27.6387C18.2578 26.9648 18.9961 26.0273 19.5469 24.8262L23.9062 27.3486C23.2559 29.124 22.0664 30.583 20.3379 31.7256C18.6094 32.8623 16.5469 33.4307 14.1504 33.4307C11.8184 33.4307 9.69141 32.8682 7.76953 31.7432C5.85352 30.6123 4.33008 29.0098 3.19922 26.9355C2.07422 24.8613 1.51172 22.4795 1.51172 19.79C1.51172 17.1006 2.06836 14.7246 3.18164 12.6621C4.30078 10.5996 5.82422 9.00293 7.75195 7.87207C9.68555 6.74121 11.8184 6.17578 14.1504 6.17578C16.5469 6.17578 18.6094 6.74707 20.3379 7.88965C22.0664 9.03223 23.2559 10.4912 23.9062 12.2666L19.5469 14.7803C18.9961 13.585 18.2578 12.6504 17.332 11.9766C16.4121 11.3027 15.3135 10.9658 14.0361 10.9658C12.6943 10.9658 11.4961 11.3262 10.4414 12.0469C9.38672 12.7676 8.55176 13.7959 7.93652 15.1318C7.32715 16.4619 7.02246 18.0146 7.02246 19.79C7.02246 21.5654 7.32715 23.127 7.93652 24.4746C8.55176 25.8164 9.38672 26.8477 10.4414 27.5684C11.4961 28.2832 12.6943 28.6406 14.0361 28.6406ZM31.8637 33L26.8539 33L26.8539 5.60449L31.8637 5.60449L31.8637 33ZM44.3857 13.8838C46.9052 13.8838 48.874 14.5986 50.2919 16.0283C51.7099 17.4521 52.4189 19.4854 52.4189 22.1279L52.4189 33L48.2001 33C48.1767 32.8066 48.1474 32.4902 48.1122 32.0508C48.0771 31.6055 48.0243 31.2129 47.954 30.873C47.4033 31.7402 46.6884 32.3848 45.8095 32.8066C44.9365 33.2227 43.8759 33.4307 42.6279 33.4307C41.3271 33.4307 40.1435 33.2051 39.0771 32.7539C38.0107 32.2969 37.164 31.6289 36.537 30.75C35.916 29.8711 35.6054 28.834 35.6054 27.6387C35.6054 26.3906 35.9599 25.3037 36.6689 24.3779C37.3779 23.4521 38.33 22.7373 39.5253 22.2334C40.7265 21.7295 42.0478 21.4775 43.4892 21.4775C44.7841 21.4775 46.1171 21.6943 47.4882 22.1279C47.412 19.3682 46.2343 17.9883 43.955 17.9883C42.1327 17.9883 40.7997 18.8027 39.956 20.4316L36.3964 18.3838C37.0702 16.9893 38.1015 15.8906 39.4902 15.0879C40.8847 14.2852 42.5165 13.8838 44.3857 13.8838ZM47.4882 25.4414C46.287 25.1543 45.2411 25.0107 44.3505 25.0107C43.1728 25.0107 42.2587 25.2217 41.6083 25.6436C40.9638 26.0596 40.6415 26.6514 40.6415 27.4189C40.6415 28.1162 40.8993 28.6582 41.415 29.0449C41.9306 29.4258 42.5986 29.6162 43.4189 29.6162C44.497 29.6162 45.4433 29.3115 46.2577 28.7021C47.0781 28.0869 47.4882 27.2402 47.4882 26.1621L47.4882 25.4414ZM70.6311 27.4541C70.6311 29.3057 69.9162 30.7646 68.4865 31.8311C67.0627 32.8975 65.2112 33.4307 62.9319 33.4307C60.9631 33.4307 59.2639 33.0117 57.8342 32.1738C56.4045 31.3301 55.4377 30.1641 54.9338 28.6758L58.5725 26.5576C58.9299 27.4424 59.4924 28.1309 60.26 28.623C61.0334 29.1152 61.9358 29.3613 62.967 29.3613C63.7346 29.3613 64.344 29.2178 64.7951 28.9307C65.2522 28.6436 65.4807 28.2363 65.4807 27.709C65.4807 27.1055 65.1819 26.6426 64.5842 26.3203C63.9865 25.998 63.049 25.6553 61.7717 25.292C60.5002 24.9111 59.4631 24.542 58.6604 24.1846C57.8576 23.8213 57.1604 23.2998 56.5686 22.6201C55.9826 21.9346 55.6897 21.0381 55.6897 19.9307C55.6897 18.6826 56.0324 17.6045 56.718 16.6963C57.4035 15.7822 58.3205 15.085 59.469 14.6045C60.6233 14.124 61.883 13.8838 63.2483 13.8838C65.1233 13.8838 66.7082 14.2852 68.0032 15.0879C69.2981 15.8906 70.1155 16.9541 70.4553 18.2783L66.8166 20.3262C66.0959 18.7676 64.883 17.9883 63.178 17.9883C62.4573 17.9883 61.8801 18.126 61.4465 18.4014C61.0188 18.6768 60.8049 19.0664 60.8049 19.5703C60.8049 20.1445 61.092 20.584 61.6662 20.8887C62.2463 21.1875 63.1457 21.5039 64.3645 21.8379C65.6653 22.2012 66.7346 22.5645 67.5725 22.9277C68.4104 23.2852 69.1282 23.8301 69.7258 24.5625C70.3293 25.2891 70.6311 26.2529 70.6311 27.4541ZM84.3502 13.8838C86.3892 13.8838 88.0152 14.5635 89.2281 15.9229C90.441 17.2764 91.0474 19.248 91.0474 21.8379L91.0474 33L86.0377 33L86.0377 23.4639C86.0377 20.0537 84.9097 18.3486 82.6539 18.3486C81.4527 18.3486 80.4859 18.8115 79.7535 19.7373C79.0269 20.6572 78.6637 21.958 78.6637 23.6396L78.6637 33L73.6539 33L73.6539 5.60449L78.6637 5.60449L78.6637 16.8369C79.859 14.8682 81.7545 13.8838 84.3502 13.8838Z" fill="rgb(0,0,0)" fill-opacity="0.898039222" fill-rule="nonzero" />
</svg>
