<svg viewBox="0 0 13.5 13.5" xmlns="http://www.w3.org/2000/svg" xmlns:xlink="http://www.w3.org/1999/xlink" width="13.500000" height="13.500000" fill="none" customFrame="#000000">
	<path id="矩形 110 (边框)" d="M0 2.08333L5.96046e-08 5.55C5.96046e-08 5.97 0.33 6.3 0.75 6.3C1.17 6.3 1.5 5.97 1.5 5.55L1.5 2.08333C1.5 2.00279 1.51424 1.92815 1.54271 1.8594C1.57119 1.79065 1.6139 1.72781 1.67085 1.67085C1.72781 1.6139 1.79065 1.57119 1.8594 1.54271C1.92815 1.51424 2.00279 1.5 2.08333 1.5L5.55 1.5C5.97 1.5 6.3 1.17 6.3 0.75C6.3 0.33 5.97 0 5.55 0L2.08333 0C1.93252 0 1.7851 0.0156107 1.64106 0.046832C1.51553 0.0740408 1.39257 0.113106 1.27218 0.164026C1.15243 0.214673 1.0393 0.275298 0.932789 0.3459C0.817511 0.422311 0.709979 0.510409 0.610194 0.610194C0.51041 0.709978 0.422313 0.817509 0.345902 0.932787C0.275299 1.0393 0.214674 1.15243 0.164027 1.27218C0.113105 1.39257 0.0740404 1.51553 0.0468315 1.64106C0.0156105 1.7851 0 1.93252 0 2.08333ZM13.5 7.95C13.5 7.53 13.17 7.2 12.75 7.2C12.33 7.2 12 7.53 12 7.95L12 11.4167C12 11.4972 11.9858 11.5719 11.9573 11.6406C11.9288 11.7093 11.8861 11.7722 11.8291 11.8291C11.7722 11.8861 11.7093 11.9288 11.6406 11.9573C11.5719 11.9858 11.4972 12 11.4167 12L7.95 12C7.53 12 7.2 12.33 7.2 12.75C7.2 13.17 7.53 13.5 7.95 13.5L11.4167 13.5C11.5675 13.5 11.7149 13.4844 11.8589 13.4532C11.9844 13.426 12.1074 13.3869 12.2278 13.336C12.4772 13.2305 12.6978 13.0818 12.8898 12.8898C13.0818 12.6978 13.2305 12.4772 13.336 12.2278C13.4453 11.9693 13.5 11.6989 13.5 11.4167L13.5 7.95Z" fill="rgb(0,0,0)" fill-opacity="0.898039222" fill-rule="evenodd" />
</svg>
