<svg viewBox="0 0 13.5 13.5" xmlns="http://www.w3.org/2000/svg" xmlns:xlink="http://www.w3.org/1999/xlink" width="13.500000" height="13.500000" fill="none" customFrame="#000000">
	<rect id="容器 33" width="13.500000" height="13.500000" x="0.000000" y="0.000000" />
	<path id="矩形 110 (边框)" />
	<path id="矩形 110 (边框)" d="M6.5 0.950001C6.5 0.530001 6.17 0.200001 5.75 0.2C5.33 0.2 5 0.530001 5 0.95L5 4.41667C5 4.49721 4.98576 4.57185 4.95729 4.6406C4.92881 4.70934 4.8861 4.77219 4.82915 4.82915C4.77219 4.8861 4.70934 4.92881 4.6406 4.95729C4.57185 4.98576 4.49721 5 4.41667 5L0.95 5C0.530001 5 0.2 5.33 0.2 5.75C0.200001 6.17 0.530001 6.5 0.950001 6.5L4.41667 6.5C4.56746 6.5 4.71487 6.48439 4.85889 6.45318C4.98444 6.42597 5.10742 6.3869 5.22782 6.33597C5.47716 6.23051 5.69782 6.08179 5.8898 5.8898C6.08179 5.69782 6.23051 5.47716 6.33597 5.22782C6.44532 4.96929 6.5 4.6989 6.5 4.41667L6.5 0.950001Z" fill="rgb(0,0,0)" fill-opacity="0.898039222" fill-rule="evenodd" />
	<path id="矩形 110 (边框)" d="M7 9.08333L7 12.55C7 12.97 7.33 13.3 7.75 13.3C8.17 13.3 8.5 12.97 8.5 12.55L8.5 9.08333C8.5 9.00279 8.51424 8.92815 8.54271 8.8594C8.57119 8.79065 8.6139 8.72781 8.67085 8.67085C8.72781 8.6139 8.79065 8.57119 8.8594 8.54271C8.92815 8.51424 9.00279 8.5 9.08333 8.5L12.55 8.5C12.97 8.5 13.3 8.17 13.3 7.75C13.3 7.33 12.97 7 12.55 7L9.08333 7C8.93252 7 8.7851 7.01561 8.64106 7.04683C8.51553 7.07404 8.39257 7.11311 8.27218 7.16403C8.15243 7.21467 8.0393 7.2753 7.93279 7.3459C7.81751 7.42231 7.70998 7.51041 7.61019 7.61019C7.51041 7.70998 7.42231 7.81751 7.3459 7.93279C7.2753 8.0393 7.21467 8.15243 7.16403 8.27218C7.11311 8.39257 7.07404 8.51553 7.04683 8.64106C7.01561 8.7851 7 8.93252 7 9.08333Z" fill="rgb(0,0,0)" fill-opacity="0.898039222" fill-rule="evenodd" />
</svg>
