<svg width="192.681641" height="42.000000" viewBox="0 0 192.682 42" fill="none" xmlns="http://www.w3.org/2000/svg" xmlns:xlink="http://www.w3.org/1999/xlink">
	<desc>
			Created with Pixso.
	</desc>
	<defs/>
	<path id="Clash" d="M26.42 33L30.13 33L30.13 5.6L26.42 5.6L26.42 33ZM84.75 14.73Q83.31 13.88 81.36 13.88Q79.77 13.88 78.42 14.45Q78.18 14.55 77.95 14.67Q77.43 14.94 76.98 15.3Q76.1 15.99 75.49 17.01L75.49 5.6L71.78 5.6L71.78 33L75.49 33L75.49 22.77Q75.49 20.36 76.68 18.97Q76.78 18.84 76.9 18.72Q77.61 18.02 78.45 17.66Q79.32 17.3 80.35 17.3Q81.67 17.3 82.54 17.92Q82.97 18.23 83.29 18.7Q84.27 20.11 84.27 22.7L84.27 33L87.98 33L87.98 21.59Q87.98 17.88 86.16 15.88Q85.53 15.18 84.75 14.73ZM17.11 29.04Q15.71 29.87 13.82 29.87Q12.32 29.87 11.03 29.35Q10.31 29.06 9.65 28.61Q9.4 28.44 9.17 28.26Q7.68 27.04 6.8 25.06Q5.79 22.77 5.79 19.79Q5.79 16.8 6.8 14.51Q7.68 12.51 9.2 11.31Q9.42 11.14 9.65 10.99Q10.29 10.55 11 10.26Q12.31 9.74 13.82 9.74Q15.71 9.74 17.11 10.57Q17.29 10.67 17.46 10.79Q17.55 10.85 17.64 10.92Q19.03 11.95 19.87 13.7L23.03 11.83Q22.64 10.86 22.04 10.04Q21.06 8.69 19.54 7.74Q19.15 7.5 18.74 7.29Q16.58 6.21 13.89 6.21Q11.8 6.21 9.93 6.86Q8.78 7.26 7.71 7.91Q6.98 8.36 6.32 8.9Q4.5 10.42 3.31 12.69Q1.69 15.79 1.69 19.79Q1.69 23.78 3.31 26.88Q4.48 29.13 6.28 30.65Q6.95 31.22 7.71 31.69Q8.8 32.35 9.97 32.75Q11.82 33.39 13.89 33.39Q16.58 33.39 18.74 32.31Q19.15 32.11 19.54 31.86Q21.06 30.91 22.04 29.57Q22.64 28.75 23.03 27.77L19.87 25.9Q19.03 27.66 17.64 28.69Q17.55 28.76 17.46 28.82Q17.29 28.94 17.11 29.04ZM47.19 15.05Q45.37 13.88 42.8 13.88Q40.59 13.88 38.79 14.74Q38.48 14.89 38.19 15.07Q36.8 15.88 35.95 17.08Q35.56 17.62 35.28 18.24L38.01 19.82Q38.77 18.48 39.87 17.79Q40.96 17.09 42.58 17.09Q44.25 17.09 45.23 17.91Q45.43 18.08 45.6 18.29Q46.62 19.5 46.62 22.05L46.62 22.12Q44.52 21.59 42.55 21.59Q39.02 21.59 36.75 23.2Q35.61 24.02 35.05 25.13Q34.49 26.22 34.49 27.6Q34.49 29.14 35.15 30.3Q35.27 30.52 35.42 30.73Q35.66 31.06 35.95 31.36Q36.76 32.2 37.92 32.71Q39.49 33.39 41.36 33.39Q43.97 33.39 45.6 32.13Q46.36 31.55 46.91 30.69Q47.01 31.38 47.08 33L50.29 33L50.29 21.54Q50.29 18.3 48.69 16.38Q48.47 16.11 48.22 15.87Q47.74 15.41 47.19 15.05ZM67.67 30.12Q68.25 29.01 68.25 27.6Q68.25 25.9 67.43 24.83Q67.4 24.79 67.37 24.75Q66.83 24.09 66.15 23.63Q65.72 23.34 65.24 23.13Q64 22.59 62.06 22.05Q60.62 21.66 59.83 21.35Q59.03 21.04 58.51 20.56Q58.34 20.41 58.23 20.22Q57.99 19.82 57.99 19.28Q57.99 18.74 58.22 18.34Q58.43 17.95 58.85 17.68Q59.72 17.12 61.13 17.12Q62.6 17.12 63.66 17.77Q64.04 18 64.35 18.3Q64.92 18.84 65.27 19.6L68.03 18.02Q67.81 17.31 67.41 16.72Q66.75 15.7 65.6 15Q63.79 13.88 61.23 13.88Q59.29 13.88 57.68 14.56Q56.51 15.06 55.69 15.9Q55.38 16.21 55.12 16.57Q54.8 17.01 54.59 17.49Q54.17 18.46 54.17 19.6Q54.17 21.19 54.95 22.17Q54.98 22.21 55.02 22.25Q55.54 22.85 56.17 23.27Q56.58 23.55 57.04 23.75Q58.21 24.25 60.15 24.79Q61.63 25.22 62.47 25.54Q63.32 25.87 63.88 26.43Q64.07 26.62 64.19 26.84Q64.43 27.28 64.43 27.84Q64.43 28.41 64.2 28.85Q63.97 29.28 63.52 29.59Q62.6 30.23 61.05 30.23Q59.32 30.23 58.09 29.45Q57.85 29.3 57.63 29.11Q56.75 28.37 56.27 27.16L53.49 28.79Q53.78 29.7 54.31 30.45Q55.03 31.47 56.19 32.17Q58.21 33.39 61.05 33.39Q64.19 33.39 66.17 31.87Q66.21 31.84 66.25 31.81Q67.18 31.08 67.67 30.12ZM42.84 24.39Q44.45 24.39 46.62 24.93L46.62 26.12Q46.62 27.42 46.03 28.35Q45.71 28.86 45.21 29.27Q44.79 29.61 44.32 29.85Q43.21 30.4 41.83 30.4Q40.25 30.4 39.28 29.64Q39.27 29.63 39.27 29.63Q38.88 29.32 38.65 28.92Q38.3 28.32 38.3 27.52Q38.3 26.74 38.63 26.15Q38.92 25.61 39.49 25.22Q40.67 24.39 42.84 24.39Z" fill="#000000" fill-opacity="0.898039" fill-rule="evenodd"/>
	<path id="直线 1" d="M98.99 32.99L102.65 32.99L102.65 13.9L116.46 32.99L119.71 32.99L119.71 6.99L116.05 6.99L116.05 26.49L102.24 6.99L98.99 6.99L98.99 32.99ZM137.99 6.99L121.74 6.99L121.74 32.99L138.39 32.99L138.39 29.74L125.8 29.74L125.8 21.21L137.18 21.21L137.18 17.96L125.8 17.96L125.8 10.24L137.99 10.24L137.99 6.99ZM147.18 6.99L151.85 6.99L160.58 19.59L151.24 32.99L146.97 32.99L156.32 19.79L147.18 6.99ZM169.93 6.99L162.82 16.95L160.58 13.9L165.46 6.99L169.93 6.99ZM192.68 6.99L172.77 6.99L172.77 10.45L180.9 10.45L180.9 32.99L184.76 32.99L184.76 10.45L192.68 10.45L192.68 6.99ZM162.61 22.43L170.13 32.99L165.46 32.99L160.38 25.88L162.61 22.43Z" fill="#000000" fill-opacity="0.900000" fill-rule="evenodd"/>

</svg>
