<svg width="24.000000" height="24.000000" viewBox="0 0 24 24" fill="none" xmlns="http://www.w3.org/2000/svg" xmlns:xlink="http://www.w3.org/1999/xlink">
	<desc>
			Created with Pixso.
	</desc>
	<defs>
		<clipPath id="clip253_5186">
			<rect id="checkmark" width="24.000000" height="24.000000" fill="white" fill-opacity="0"/>
		</clipPath>
	</defs>
	<g clip-path="url(#clip253_5186)">
		<g opacity="0.000000">
			<rect id="rect" width="24.000000" height="24.000000" fill="#000000" fill-opacity="1.000000"/>
		</g>
		<path id="path" d="M9.5 18.18C9.77 18.18 10.04 18.14 10.3 18.04C10.55 17.93 10.77 17.78 10.97 17.59L21.53 7.08C21.67 6.93 21.74 6.75 21.74 6.55C21.74 6.34 21.67 6.16 21.53 6.02C21.38 5.86 21.2 5.78 21 5.78C20.79 5.78 20.61 5.86 20.45 6.02L9.88 16.54C9.77 16.64 9.64 16.7 9.5 16.7C9.35 16.7 9.23 16.64 9.12 16.54L3.52 10.99C3.38 10.83 3.2 10.75 3 10.76C2.79 10.77 2.61 10.85 2.46 10.99C2.31 11.13 2.22 11.31 2.22 11.52C2.22 11.72 2.31 11.9 2.46 12.05L8.06 17.59C8.25 17.78 8.47 17.93 8.71 18.04C8.97 18.14 9.23 18.18 9.5 18.18Z" fill="#000000" fill-opacity="0.901961" fill-rule="nonzero"/>
	</g>
</svg>
