<svg viewBox="0 0 161.489 42" xmlns="http://www.w3.org/2000/svg" xmlns:xlink="http://www.w3.org/1999/xlink" width="161.489258" height="42" fill="none" customFrame="#000000">
	<rect id="组合 35" width="161.489258" height="42" x="0" y="0" fill="rgb(255,255,255)" fill-opacity="0" />
	<path id="矢量 8" d="M119.426 22.8839Q118.337 21.2954 116.093 20.499Q117.375 19.7623 118.101 18.6593L118.101 18.6592Q119.046 17.2224 119.046 15.1641Q119.046 13.1477 118.162 11.6538L118.162 11.6537Q117.517 10.5625 116.4 9.75Q113.755 7.8252 109.545 7.8252L100 7.8252L100 34.1748L110.512 34.1748Q115.231 34.1748 117.842 32.1621Q118.895 31.3463 119.524 30.2799Q120.452 28.704 120.452 26.5811Q120.452 24.3808 119.426 22.8839ZM105.115 18.583L105.115 12.3604L109.035 12.3604Q111.197 12.3604 112.419 13.1338Q113.045 13.5273 113.353 14.0938Q113.649 14.6407 113.649 15.3486Q113.649 16.0291 113.384 16.5827Q113.074 17.2303 112.401 17.7041Q111.162 18.583 109.035 18.583L105.115 18.583ZM152.059 21.0703L156.022 15.5244L161.489 15.5244L154.651 24.7441L161.489 34.1748L155.768 34.1748L151.848 28.5938L147.954 34.1748L142.408 34.1748L149.255 24.9551L142.408 15.5244L148.209 15.5244L152.059 21.0703ZM138.208 16.2096C137.027 15.6748 135.512 15.6748 132.481 15.6748C129.451 15.6748 127.936 15.6748 126.755 16.2096C125.429 16.8104 124.367 17.8727 123.766 19.1986C123.231 20.3789 123.231 21.8942 123.231 24.9248C123.231 27.9554 123.231 29.4707 123.766 30.651C124.367 31.9769 125.429 33.0392 126.755 33.64C127.936 34.1748 129.451 34.1748 132.481 34.1748C135.512 34.1748 137.027 34.1748 138.208 33.64C139.534 33.0392 140.596 31.9769 141.197 30.651C141.731 29.4707 141.731 27.9554 141.731 24.9248C141.731 21.8942 141.731 20.3789 141.197 19.1986C140.596 17.8727 139.534 16.8104 138.208 16.2096ZM133.231 20.1748C134.631 20.1748 135.332 20.1748 135.866 20.4473C136.337 20.687 136.719 21.0695 136.959 21.5398C137.231 22.0746 137.231 22.7747 137.231 24.1748L137.231 25.6748C137.231 27.075 137.231 27.775 136.959 28.3098C136.719 28.7802 136.337 29.1626 135.866 29.4023C135.332 29.6748 134.631 29.6748 133.231 29.6748L131.731 29.6748C130.332 29.6748 129.631 29.6748 129.097 29.4023C128.626 29.1626 128.244 28.7802 128.004 28.3098C127.731 27.775 127.731 27.075 127.731 25.6748L127.731 24.1748C127.731 22.7747 127.731 22.0746 128.004 21.5398C128.244 21.0695 128.626 20.687 129.097 20.4473C129.631 20.1748 130.332 20.1748 131.731 20.1748L133.231 20.1748ZM113.737 28.7783Q112.463 29.6396 110.081 29.6396L105.115 29.6396L105.115 22.9424L110.046 22.9424Q112.463 22.9424 113.737 23.8477Q114.352 24.2798 114.67 24.8713L114.67 24.8714Q115.012 25.5068 115.012 26.3262Q115.012 27.1623 114.656 27.7996L114.656 27.7997Q114.338 28.3681 113.737 28.7783Z" fill="rgb(10,89,247)" fill-rule="evenodd" />
	<path id="" d="M14.0361 28.6406Q15.9521 28.6406 17.332 27.6387Q18.7207 26.6279 19.5469 24.8262L23.9062 27.3486Q22.9307 30.0117 20.3379 31.7256Q17.7451 33.4307 14.1504 33.4307Q10.6523 33.4307 7.76953 31.7432Q4.89551 30.0469 3.19922 26.9355Q1.51172 23.8242 1.51172 19.79Q1.51172 15.7559 3.18164 12.6621Q4.86035 9.56836 7.75195 7.87207Q10.6523 6.17578 14.1504 6.17578Q17.7451 6.17578 20.3379 7.88965Q22.9307 9.60352 23.9062 12.2666L19.5469 14.7803Q18.7207 12.9873 17.332 11.9766Q15.9521 10.9658 14.0361 10.9658Q12.0234 10.9658 10.4414 12.0469Q8.85938 13.1279 7.93652 15.1318Q7.02246 17.127 7.02246 19.79Q7.02246 22.4531 7.93652 24.4746Q8.85938 26.4873 10.4414 27.5684Q12.0234 28.6406 14.0361 28.6406ZM31.8637 33L26.8539 33L26.8539 5.60449L31.8637 5.60449L31.8637 33ZM44.3857 13.8838Q48.165 13.8838 50.2919 16.0283Q52.4189 18.1641 52.4189 22.1279L52.4189 33L48.2001 33Q48.165 32.71 48.1122 32.0508Q48.0595 31.3828 47.954 30.873Q47.1279 32.1738 45.8095 32.8066Q44.4999 33.4307 42.6279 33.4307Q40.6767 33.4307 39.0771 32.7539Q37.4775 32.0684 36.537 30.75Q35.6054 29.4316 35.6054 27.6387Q35.6054 25.7666 36.6689 24.3779Q37.7324 22.9893 39.5253 22.2334Q41.3271 21.4775 43.4892 21.4775Q45.4316 21.4775 47.4882 22.1279Q47.374 17.9883 43.955 17.9883Q41.2216 17.9883 39.956 20.4316L36.3964 18.3838Q37.4072 16.292 39.4902 15.0879Q41.582 13.8838 44.3857 13.8838ZM47.4882 25.4414Q45.6865 25.0107 44.3505 25.0107Q42.5839 25.0107 41.6083 25.6436Q40.6415 26.2676 40.6415 27.4189Q40.6415 28.4648 41.415 29.0449Q42.1884 29.6162 43.4189 29.6162Q45.0361 29.6162 46.2577 28.7021Q47.4882 27.7793 47.4882 26.1621L47.4882 25.4414ZM70.6311 27.4541Q70.6311 30.2314 68.4865 31.8311Q66.3508 33.4307 62.9319 33.4307Q59.9787 33.4307 57.8342 32.1738Q55.6897 30.9082 54.9338 28.6758L58.5725 26.5576Q59.1086 27.8848 60.26 28.623Q61.4201 29.3613 62.967 29.3613Q64.1184 29.3613 64.7951 28.9307Q65.4807 28.5 65.4807 27.709Q65.4807 26.8037 64.5842 26.3203Q63.6877 25.8369 61.7717 25.292Q59.8645 24.7207 58.6604 24.1846Q57.4563 23.6396 56.5686 22.6201Q55.6897 21.5918 55.6897 19.9307Q55.6897 18.0586 56.718 16.6963Q57.7463 15.3252 59.469 14.6045Q61.2004 13.8838 63.2483 13.8838Q66.0608 13.8838 68.0032 15.0879Q69.9455 16.292 70.4553 18.2783L66.8166 20.3262Q65.7356 17.9883 63.178 17.9883Q62.0969 17.9883 61.4465 18.4014Q60.8049 18.8145 60.8049 19.5703Q60.8049 20.4316 61.6662 20.8887Q62.5364 21.3369 64.3645 21.8379Q66.3157 22.3828 67.5725 22.9277Q68.8293 23.4639 69.7258 24.5625Q70.6311 25.6523 70.6311 27.4541ZM84.3502 13.8838Q87.4088 13.8838 89.2281 15.9229Q91.0474 17.9531 91.0474 21.8379L91.0474 33L86.0377 33L86.0377 23.4639Q86.0377 18.3486 82.6539 18.3486Q80.8521 18.3486 79.7535 19.7373Q78.6637 21.1172 78.6637 23.6396L78.6637 33L73.6539 33L73.6539 5.60449L78.6637 5.60449L78.6637 16.8369Q80.4566 13.8838 84.3502 13.8838Z" fill="rgb(255,255,255)" style="mix-blend-mode:normal" fill-opacity="0.889999986" fill-rule="nonzero" />
</svg>
