<svg width="632.023926" height="112.000000" viewBox="0 0 632.024 112" fill="none" xmlns="http://www.w3.org/2000/svg" xmlns:xlink="http://www.w3.org/1999/xlink">
	<desc>
			Created with Pixso.
	</desc>
	<defs/>
	<rect id="White" width="632.023621" height="112.000000" fill="#FFFFFF" fill-opacity="0"/>
	<path id="Clash" d="M122.16 110.26L102 110.26L102 0L122.16 0L122.16 110.26ZM353.05 41.53C348.17 36.05 341.63 33.32 333.42 33.32C322.97 33.32 315.34 37.28 310.53 45.21L310.53 0L290.37 0L290.37 110.26L310.53 110.26L310.53 72.59C310.53 65.82 311.99 60.58 314.92 56.88C317.87 53.15 321.76 51.29 326.59 51.29C335.67 51.29 340.21 58.15 340.21 71.88L340.21 110.26L360.38 110.26L360.38 65.33C360.38 54.91 357.93 46.97 353.05 41.53ZM50.41 92.72Q56.54 92.72 61.31 90.16Q62.54 89.51 63.67 88.68Q69.26 84.61 72.59 77.36L90.13 87.51Q89.07 90.41 87.54 93.03Q83.39 100.1 75.77 105.13Q74.94 105.68 74.09 106.18Q64.19 112 50.87 112Q41.47 112 33.18 108.97L33.18 108.97L33.18 108.97Q29.04 107.46 25.18 105.2Q21.82 103.22 18.86 100.76Q11.63 94.74 6.79 85.85Q0 73.33 0 57.09Q0 40.85 6.72 28.4Q11.23 20.08 17.92 14.28L17.92 14.27L17.92 14.27Q21.25 11.39 25.11 9.12Q29.24 6.71 33.67 5.15L33.67 5.15Q41.77 2.29 50.87 2.29Q64.09 2.29 73.94 8.06L73.95 8.06Q74.87 8.6 75.77 9.19Q83.39 14.23 87.54 21.3L87.54 21.3L87.54 21.3Q89.07 23.91 90.13 26.81L72.59 36.93Q69.26 29.71 63.67 25.64Q62.48 24.77 61.18 24.08Q56.46 21.57 50.41 21.57Q45.22 21.57 40.75 23.36L40.74 23.36L40.74 23.36Q38.23 24.36 35.94 25.93Q35.72 26.07 35.5 26.23L35.5 26.23L35.49 26.24Q29.44 30.56 25.85 38.34Q22.18 46.37 22.18 57.09Q22.18 67.81 25.85 75.95Q29.47 83.83 35.59 88.16Q35.61 88.17 35.62 88.18L35.63 88.19Q35.65 88.2 35.67 88.22Q35.8 88.31 35.94 88.4Q38.17 89.91 40.62 90.9Q45.15 92.72 50.41 92.72ZM196.34 41.95C190.63 36.2 182.7 33.32 172.56 33.32C165.04 33.32 158.47 34.93 152.86 38.17Q147.82 41.08 144.34 45.28L144.34 45.28L144.34 45.28Q142.03 48.07 140.41 51.43L154.73 59.67Q157.31 54.7 161.4 52.24Q165.4 49.84 170.83 49.84Q176.37 49.84 179.76 52.54Q184.78 56.55 185.05 66.5C179.53 64.76 174.17 63.88 168.95 63.88C163.15 63.88 157.83 64.9 153 66.93C148.19 68.95 144.36 71.83 141.5 75.56C138.65 79.28 137.22 83.66 137.22 88.68C137.22 93.49 138.47 97.67 140.97 101.21C143.5 104.74 146.9 107.43 151.2 109.27C155.49 111.09 160.25 112 165.49 112C170.51 112 174.78 111.16 178.29 109.48C181.83 107.79 184.71 105.19 186.93 101.7C187.21 103.07 187.42 104.65 187.56 106.44C187.7 108.21 187.82 109.48 187.92 110.26L204.9 110.26L204.9 66.5Q204.9 51.8 197.63 43.35L197.63 43.35Q197.01 42.63 196.34 41.95ZM278.2 87.94C278.2 95.39 275.32 101.26 269.57 105.56Q260.97 112 247.21 112C239.29 112 232.45 110.31 226.69 106.94C220.94 103.54 217.05 98.85 215.02 92.86L229.66 84.33C231.1 87.89 233.37 90.66 236.46 92.64C239.57 94.63 243.2 95.62 247.35 95.62C250.44 95.62 252.89 95.04 254.71 93.88C256.55 92.73 257.47 91.09 257.47 88.97C257.47 86.54 256.27 84.67 253.86 83.38C251.46 82.08 247.68 80.7 242.54 79.24C237.42 77.7 233.25 76.22 230.02 74.78C226.79 73.32 223.98 71.22 221.6 68.48C219.24 65.72 218.06 62.12 218.06 57.66C218.06 52.63 219.44 48.29 222.2 44.64C224.96 40.96 228.65 38.15 233.27 36.22C237.92 34.29 242.99 33.32 248.48 33.32C256.03 33.32 262.41 34.93 267.62 38.17C272.83 41.4 276.12 45.68 277.49 51.01L262.85 59.25C259.95 52.98 255.06 49.84 248.2 49.84Q243.85 49.84 241.23 51.5C239.51 52.61 238.65 54.18 238.65 56.21C238.65 58.52 239.81 60.29 242.12 61.51C244.45 62.72 248.07 63.99 252.98 65.33C258.21 66.8 262.52 68.26 265.89 69.72C269.26 71.16 272.15 73.35 274.56 76.3Q274.68 76.44 274.79 76.59L274.79 76.59Q278.2 80.93 278.2 87.94ZM172.42 78.1C176.01 78.1 180.22 78.68 185.05 79.84L185.05 82.74C185.05 87.08 183.4 90.49 180.1 92.96C176.82 95.42 173.01 96.64 168.67 96.64C165.37 96.64 162.68 95.88 160.61 94.34C158.53 92.79 157.49 90.6 157.49 87.8C157.49 84.71 158.79 82.33 161.38 80.65C164 78.95 167.68 78.1 172.42 78.1Z" fill="#FFFFFF" fill-opacity="0.898039" fill-rule="evenodd"/>
	<path id="矢量 8" d="M449.3 53.98C461 58.13 466.85 66.29 466.85 78.46C466.85 88.01 463.34 95.5 456.34 100.92C449.33 106.32 439.5 109.02 426.84 109.02L384.53 109.02L384.53 2.97L422.94 2.97C434.24 2.97 443.44 5.55 450.54 10.71C457.64 15.88 461.19 23.14 461.19 32.51C461.19 42.27 457.22 49.43 449.3 53.98ZM405.11 21.22L405.11 46.27L420.89 46.27C426.6 46.27 431.12 45.09 434.44 42.73C437.79 40.37 439.46 37.21 439.46 33.25C439.46 29.38 437.81 26.41 434.51 24.33C431.23 22.26 426.69 21.22 420.89 21.22L405.11 21.22ZM425.1 90.77C431.49 90.77 436.4 89.61 439.82 87.3C443.24 84.97 444.95 81.68 444.95 77.43C444.95 73.19 443.24 69.86 439.82 67.46C436.4 65.03 431.45 63.81 424.96 63.81L405.11 63.81L405.11 90.77L425.1 90.77Z" fill="#FFA030" fill-opacity="0.898039" fill-rule="nonzero"/>
	<path id="矢量 8" d="M594.06 56.28L610.02 33.96L632.02 33.96L604.5 71.07L632.02 109.02L608.99 109.02L593.21 86.56L577.54 109.02L555.22 109.02L582.78 71.91L555.22 33.96L578.57 33.96L594.06 56.28Z" fill="#FFA030" fill-opacity="0.898039" fill-rule="nonzero"/>
	<path id="矢量 8" d="M515.26 34.56C527.46 34.56 533.56 34.56 538.31 36.71C543.65 39.13 547.92 43.41 550.34 48.74C552.49 53.5 552.49 59.59 552.49 71.79C552.49 83.99 552.49 90.09 550.34 94.84C547.92 100.18 543.65 104.45 538.31 106.87C533.56 109.02 527.46 109.02 515.26 109.02C503.06 109.02 496.97 109.02 492.22 106.87C486.88 104.45 482.6 100.18 480.18 94.84C478.03 90.09 478.03 83.99 478.03 71.79C478.03 59.59 478.03 53.5 480.18 48.74C482.6 43.41 486.88 39.13 492.22 36.71C496.97 34.56 503.06 34.56 515.26 34.56ZM528.89 53.77C526.73 52.67 523.92 52.67 518.28 52.67L512.24 52.67C506.61 52.67 503.79 52.67 501.64 53.77C499.75 54.74 498.21 56.27 497.24 58.17C496.14 60.32 496.14 63.14 496.14 68.77L496.14 74.81C496.14 80.45 496.14 83.26 497.24 85.42C498.21 87.31 499.75 88.85 501.64 89.81C503.79 90.91 506.61 90.91 512.24 90.91L518.28 90.91C523.92 90.91 526.73 90.91 528.89 89.81C530.78 88.85 532.32 87.31 533.28 85.42C534.38 83.26 534.38 80.45 534.38 74.81L534.38 68.77C534.38 63.14 534.38 60.32 533.28 58.17C532.32 56.27 530.78 54.74 528.89 53.77Z" fill="#FFA030" fill-opacity="0.898039" fill-rule="evenodd"/>
</svg>
