<svg width="24.000000" height="24.000000" viewBox="0 0 24 24" fill="none" xmlns="http://www.w3.org/2000/svg" xmlns:xlink="http://www.w3.org/1999/xlink">
	<desc>
			Made by Ya.
	</desc>
	<defs>
		<clipPath id="clip610_8801">
			<rect id="branch" width="24.000000" height="24.000000" transform="translate(0.000000 24.000000) rotate(-90.000000)" fill="white" fill-opacity="0"/>
		</clipPath>
	</defs>
	<g clip-path="url(#clip610_8801)">
		<path id="path" d="M14.78 5.75L14.78 5.78C14.48 6.07 14.01 6.07 13.71 5.78C13.42 5.48 13.42 5.01 13.71 4.71L13.74 4.71L14.78 5.75ZM19.25 4.71L19.28 4.71C19.57 5.01 19.57 5.48 19.28 5.78C18.98 6.07 18.51 6.07 18.21 5.78L18.21 5.75L19.25 4.71ZM5.78 5.75L5.78 5.78C5.48 6.07 5.01 6.07 4.71 5.78C4.42 5.48 4.42 5.01 4.71 4.71L4.74 4.71L5.78 5.75ZM10.25 4.71L10.28 4.71C10.57 5.01 10.57 5.48 10.28 5.78C9.98 6.07 9.51 6.07 9.21 5.78L9.21 5.75L10.25 4.71ZM17.23 20.98L17.25 21C17.25 21.42 16.92 21.75 16.5 21.75C16.08 21.75 15.75 21.42 15.75 21L15.77 20.98L17.23 20.98ZM11.61 12.61L11.58 12.62C11.23 12.39 11.14 11.93 11.37 11.58C11.6 11.23 12.06 11.14 12.41 11.37L12.42 11.4L11.61 12.61Z" fill="#000000" fill-opacity="0" fill-rule="nonzero"/>
		<path id="path" d="M14.25 5.25L16.5 3L18.75 5.25M5.25 5.25L7.5 3L9.75 5.25M16.5 21L16.5 17C16.5 16.69 16.46 16.39 16.38 16.09C16.31 15.79 16.2 15.5 16.05 15.23C15.91 14.96 15.73 14.71 15.52 14.48C15.31 14.25 15.08 14.05 14.83 13.88L12 12" stroke="#000000" stroke-opacity="1.000000" stroke-width="1.500000" stroke-linejoin="round" stroke-linecap="round"/>
		<path id="path" d="M8.23 20.98L8.25 21C8.25 21.42 7.92 21.75 7.5 21.75C7.07 21.75 6.75 21.42 6.75 21L6.76 20.98L8.23 20.98ZM15.77 4.52L15.75 4.5C15.75 4.08 16.08 3.75 16.5 3.75C16.92 3.75 17.25 4.08 17.25 4.5L17.23 4.52L15.77 4.52ZM6.76 4.52L6.75 4.5C6.75 4.08 7.07 3.75 7.5 3.75C7.92 3.75 8.25 4.08 8.25 4.5L8.23 4.52L6.76 4.52ZM10.13 9.88L10.16 9.87C10.51 10.1 10.6 10.56 10.37 10.91C10.14 11.26 9.68 11.35 9.33 11.12L9.32 11.09L10.13 9.88Z" fill="#000000" fill-opacity="0" fill-rule="nonzero"/>
		<path id="path" d="M7.5 21L7.5 17C7.5 16.69 7.53 16.39 7.61 16.09C7.68 15.79 7.79 15.5 7.94 15.23C8.08 14.96 8.26 14.71 8.47 14.48C8.68 14.25 8.91 14.05 9.16 13.88L14.83 10.11C15.08 9.94 15.31 9.74 15.52 9.51C15.73 9.28 15.91 9.03 16.05 8.76C16.2 8.49 16.31 8.2 16.38 7.9C16.46 7.6 16.5 7.3 16.5 6.99L16.5 4.5M7.5 4.5L7.5 6.99C7.5 7.3 7.53 7.6 7.61 7.9C7.68 8.2 7.79 8.49 7.94 8.76C8.08 9.03 8.26 9.28 8.47 9.51C8.68 9.74 8.91 9.94 9.16 10.11L9.75 10.5" stroke="#000000" stroke-opacity="1.000000" stroke-width="1.500000" stroke-linejoin="round" stroke-linecap="round"/>
		<rect id="矩形 9" x="5.000000" y="12.000000" width="13.000000" height="11.300000" fill="#FFFFFF" fill-opacity="1.000000"/>
		<path id="矢量 12" d="M10.26 13.04L10.27 12.97C10.27 12.92 10.3 12.8 10.36 12.59C10.42 12.39 10.49 12.23 10.59 12.12C10.68 12.01 10.76 11.95 10.83 11.93C10.9 11.9 10.97 11.88 11.05 11.84" stroke="#FFFFFF" stroke-opacity="1.000000" stroke-width="1.000000" stroke-linecap="round"/>
		<rect id="矩形 8" x="11.000000" y="11.000000" rx="0.850000" width="1.700000" height="10.000000" fill="#000000" fill-opacity="1.000000"/>
		<path id="矢量 13" d="M12.14 12.56L12.17 12.5C12.19 12.47 12.24 12.39 12.32 12.28C12.4 12.17 12.5 12.07 12.61 11.97C12.72 11.88 12.83 11.79 12.93 11.7C13.03 11.61 13.11 11.53 13.18 11.46" stroke="#000000" stroke-opacity="1.000000" stroke-width="1.000000" stroke-linecap="round"/>
		<path id="矢量 14" d="M12.02 11.5L12.07 11.46C12.1 11.44 12.18 11.4 12.31 11.34C12.43 11.29 12.55 11.25 12.65 11.22" stroke="#000000" stroke-opacity="1.000000" stroke-width="1.000000" stroke-linecap="round"/>
		<path id="矢量 15" d="M11.76 11.45L11.82 11.44C11.86 11.43 11.98 11.39 12.17 11.33C12.37 11.27 12.54 11.21 12.67 11.15C12.8 11.09 12.94 11.02 13.08 10.94" stroke="#000000" stroke-opacity="1.000000" stroke-width="1.000000" stroke-linecap="round"/>
	</g>
</svg>
