<svg viewBox="0 0 24 24" xmlns="http://www.w3.org/2000/svg" xmlns:xlink="http://www.w3.org/1999/xlink" width="24.000000" height="24.000000" fill="none">
	<rect id="IconBlack" width="24.000000" height="24.000000" x="0.000000" y="0.000000" />
	<g id="组合 4">
		<path id="减去顶层" d="M5.68271 2.1807C6.41518 3.59935 7.75593 5.83613 8.92815 5.83613C8.92815 5.83613 10.2029 5.47474 11.9195 5.47474C13.6361 5.47474 15.0717 5.83613 15.0717 5.83613C16.244 5.83613 17.5847 3.59935 18.3172 2.1807C18.4696 1.88552 18.9466 1.97047 18.9751 2.30145L20.4037 18.8735C20.5487 20.555 19.2229 22 17.5351 22L6.46476 22C4.77703 22 3.45122 20.555 3.59618 18.8735L5.0248 2.30145C5.05334 1.97047 5.5303 1.88552 5.68271 2.1807ZM9.42563 10.4263L7.6741 11.8886C7.53938 12.0232 7.32119 12.0232 7.1866 11.8886C7.05201 11.754 7.05201 11.5358 7.1866 11.4012L8.64571 10.2314C8.67258 10.2044 8.67258 10.1608 8.64571 10.1339L7.1866 8.96407C7.05201 8.82948 7.05201 8.61124 7.1866 8.47665C7.32119 8.34205 7.53938 8.34205 7.6741 8.47665L9.42563 9.93892C9.56022 10.0735 9.56022 10.2917 9.42563 10.4263ZM16.3089 11.8886L14.5574 10.4263C14.4228 10.2917 14.4228 10.0735 14.5574 9.93892L16.3089 8.47665C16.4436 8.34205 16.6618 8.34205 16.7964 8.47665C16.931 8.61124 16.931 8.82948 16.7964 8.96407L15.3373 10.1339C15.3104 10.1608 15.3104 10.2044 15.3373 10.2314L16.7964 11.4012C16.931 11.5358 16.931 11.754 16.7964 11.8886C16.6618 12.0232 16.4436 12.0232 16.3089 11.8886ZM12.7211 11.3048C12.672 11.2194 12.7005 11.1137 12.7859 11.0646C12.8713 11.0155 12.9771 11.044 13.0262 11.1294C13.0544 11.1784 13.0817 11.2351 13.1082 11.2995C13.1653 11.4386 13.1909 11.5586 13.1853 11.6597C13.1813 11.7302 13.1625 11.7912 13.1293 11.8426C13.1204 11.8562 13.1105 11.8691 13.0998 11.8814C13.0855 11.8975 13.07 11.9119 13.0534 11.9246C13.0002 11.9652 12.9342 11.9891 12.8555 11.9962C12.689 12.0113 12.4481 11.9432 12.1328 11.792C12.0874 11.7698 12.0427 11.7601 11.9989 11.763C11.9675 11.765 11.9363 11.7735 11.9057 11.7885C11.8259 11.8285 11.744 11.8633 11.6605 11.8931C11.6093 11.9114 11.5574 11.9277 11.5048 11.9422C11.3384 11.9879 11.1992 12.0031 11.0874 11.9877C11.0042 11.9762 10.9361 11.9477 10.8831 11.9021C10.8555 11.8783 10.833 11.8515 10.816 11.8217C10.7915 11.7788 10.778 11.7298 10.7753 11.6745C10.7718 11.6004 10.7901 11.5171 10.8304 11.4247C10.8666 11.3412 10.922 11.2471 10.9965 11.1422C11.0534 11.0619 11.1614 11.0436 11.2418 11.1006C11.3221 11.1576 11.3404 11.2656 11.2834 11.3459C11.223 11.4309 11.1797 11.5039 11.153 11.5651C11.1399 11.5951 11.1318 11.6194 11.1284 11.638C11.1307 11.6383 11.1331 11.6387 11.1356 11.6391C11.1995 11.6479 11.2916 11.6358 11.4116 11.6029C11.5278 11.5709 11.641 11.5274 11.7515 11.4722C11.8026 11.4473 11.855 11.43 11.9088 11.4202C11.9456 11.4136 11.9828 11.4105 12.0208 11.411C12.0502 11.4113 12.0793 11.4138 12.108 11.4183C12.1685 11.4278 12.2275 11.4466 12.285 11.4747C12.4256 11.5421 12.5454 11.59 12.6443 11.6182C12.7219 11.6403 12.7816 11.6495 12.8237 11.6457C12.8274 11.6454 12.8306 11.645 12.8335 11.6445C12.8336 11.6431 12.8337 11.6415 12.8338 11.6399C12.8366 11.5919 12.8195 11.523 12.7826 11.4332C12.7621 11.3832 12.7416 11.3404 12.7211 11.3048Z" fill="rgb(0,0,0)" fill-rule="evenodd" />
	</g>
</svg>
