<svg viewBox="0 0 20.0581 23.0836" xmlns="http://www.w3.org/2000/svg" xmlns:xlink="http://www.w3.org/1999/xlink" width="20.058105" height="23.083588" fill="none" customFrame="#000000">
	<defs>
		<g id="pixso_custom_effect_0">
			<effect x="0.000000" y="1.000000" visibility="visible" fill="rgb(0,0,0)" fill-opacity="0.200000003" effectType="dropShadow" showShadowBehind="1" stdDeviation="2" radius="0" />
		</g>
		<filter id="filter_0" width="20.058105" height="23.083588" x="0.000000" y="0.000000" filterUnits="userSpaceOnUse" customEffect="url(#pixso_custom_effect_0)" color-interpolation-filters="sRGB">
			<feFlood flood-opacity="0" result="BackgroundImageFix" />
			<feOffset dx="0.000000" dy="1.000000" in="SourceAlpha" />
			<feGaussianBlur stdDeviation="0.666666687" />
			<feColorMatrix type="matrix" values="0 0 0 0 0 0 0 0 0 0 0 0 0 0 0 0 0 0 0.2 0 " />
			<feBlend result="effect_dropShadow_1" in2="BackgroundImageFix" mode="normal" />
			<feBlend result="shape" in="SourceGraphic" in2="effect_dropShadow_1" mode="normal" />
		</filter>
	</defs>
	<g filter="url(#filter_0)">
		<path id="矩形 1" d="M4.00127 1.17242C4.70018 2.52606 5.9795 4.66035 7.09801 4.66035C7.09801 4.66035 8.31434 4.31553 9.95227 4.31553C11.5902 4.31553 12.9601 4.66035 12.9601 4.66035C14.0786 4.66035 15.3579 2.52606 16.0568 1.17241C16.2023 0.890756 16.6574 0.971816 16.6846 1.28763L18.0478 17.1003C18.1861 18.7048 16.921 20.0836 15.3106 20.0836L4.74748 20.0836C3.13709 20.0836 1.87204 18.7048 2.01035 17.1003L3.37351 1.28763C3.40074 0.971816 3.85585 0.890756 4.00127 1.17242Z" fill="rgb(255,255,255)" fill-rule="evenodd" />
	</g>
</svg>
