<svg width="48.000000" height="48.000000" viewBox="0 0 48 48" fill="none" xmlns="http://www.w3.org/2000/svg" xmlns:xlink="http://www.w3.org/1999/xlink">
	<desc>
			Created with Pixso.
	</desc>
	<defs>
		<clipPath id="clip786_9410">
			<rect id="画板 35" rx="14.000000" width="48.000000" height="48.000000" fill="white" fill-opacity="0"/>
		</clipPath>
		<linearGradient x1="24.000000" y1="0.000000" x2="24.000000" y2="48.000000" id="paint_linear_786_9410_0" gradientUnits="userSpaceOnUse">
			<stop offset="0.045802" stop-color="#8AA2E5" stop-opacity="0.600000"/>
			<stop offset="0.977099" stop-color="#8AA2E5"/>
		</linearGradient>
	</defs>
	<rect id="画板 35" rx="14.000000" width="48.000000" height="48.000000" fill="url(#paint_linear_786_9410_0)" fill-opacity="1.000000"/>
	<g clip-path="url(#clip786_9410)">
		<path id="path" d="M33.56 19.31C33.7 19.33 33.7 19.33 33.84 19.35C33.95 19.45 34.06 19.54 34.17 19.64C34.2 19.77 34.23 19.91 34.26 20.06C34.15 20.33 34.01 20.56 33.84 20.8C33.81 20.84 33.78 20.88 33.76 20.92C33.7 21 33.65 21.08 33.59 21.16C33.48 21.33 33.36 21.49 33.25 21.66C33.21 21.72 33.16 21.78 33.12 21.84C33.1 21.87 33.08 21.9 33.06 21.94C33.02 22 32.97 22.06 32.93 22.12C32.58 22.63 32.22 23.15 31.87 23.67C31.9 23.67 31.93 23.67 31.96 23.67C32.85 23.73 33.7 23.86 34.54 24.18C35.1 24.4 35.63 24.69 36.11 25.06C36.31 25.23 36.51 25.41 36.7 25.59C36.73 25.62 36.77 25.65 36.8 25.69C37.2 26.06 37.5 26.51 37.78 26.98C38.1 27.56 38.33 28.17 38.49 28.82C38.59 29.33 38.64 29.83 38.63 30.36C38.63 30.42 38.63 30.48 38.63 30.54C38.63 31.2 38.53 31.79 38.34 32.42C38.13 33.07 37.86 33.71 37.46 34.27C37.1 34.77 36.66 35.24 36.18 35.62C35.61 36.05 34.97 36.39 34.29 36.64C33.79 36.8 33.23 36.97 32.7 36.99C32.61 36.99 32.61 36.99 32.52 36.99C32.47 36.99 32.47 36.99 32.42 36.99C32.31 36.99 32.2 36.99 32.09 36.99C32.01 36.99 31.93 36.99 31.85 36.99C31.64 36.99 31.42 36.99 31.2 36.98C30.97 36.98 30.73 36.98 30.5 36.98C30.09 36.98 29.68 36.98 29.27 36.98C28.69 36.98 28.1 36.98 27.51 36.98C26.55 36.98 25.6 36.98 24.64 36.98C23.71 36.98 22.79 36.98 21.86 36.98C21.8 36.98 21.74 36.98 21.68 36.98C21.4 36.98 21.11 36.98 20.82 36.98C18.44 36.98 16.06 36.98 13.68 36.98C13.47 36.81 13.47 36.81 13.4 36.75C13.34 36.64 13.34 36.64 13.31 36.56C13.31 36.43 13.31 36.31 13.31 36.18C13.43 35.98 13.43 35.98 13.5 35.9C13.59 35.84 13.68 35.78 13.78 35.71C13.82 35.71 13.85 35.71 13.9 35.71C16.22 35.71 18.55 35.71 20.88 35.7C21.16 35.7 21.44 35.7 21.72 35.7C21.78 35.7 21.83 35.7 21.89 35.7C22.79 35.7 23.7 35.7 24.6 35.7C25.52 35.7 26.45 35.69 27.37 35.69C27.94 35.69 28.51 35.69 29.08 35.69C29.48 35.69 29.87 35.69 30.26 35.69C30.49 35.69 30.71 35.69 30.94 35.69C31.14 35.69 31.35 35.69 31.56 35.69C31.63 35.69 31.71 35.69 31.78 35.69C32.37 35.69 32.94 35.62 33.51 35.46C33.58 35.44 33.64 35.42 33.7 35.4C33.74 35.39 33.77 35.38 33.81 35.36C34.28 35.19 34.71 34.96 35.12 34.66C35.57 34.31 35.99 33.93 36.32 33.46C36.63 33 36.89 32.49 37.06 31.96C37.26 31.25 37.28 30.59 37.27 29.87C37.25 29.57 37.21 29.3 37.12 29.01C37.11 28.98 37.1 28.94 37.09 28.91C36.93 28.36 36.72 27.88 36.41 27.4C36.1 26.94 35.73 26.53 35.31 26.18C34.89 25.85 34.41 25.6 33.92 25.41C33.5 25.25 33.07 25.11 32.62 25.07C32.37 25.06 32.12 25.07 31.87 25.07C31.9 25.12 31.93 25.16 31.96 25.2C32.29 25.66 32.61 26.13 32.92 26.59C33.13 26.9 33.33 27.2 33.54 27.5C33.59 27.57 33.59 27.57 33.65 27.64C33.71 27.74 33.77 27.83 33.84 27.92C33.98 28.12 34.11 28.32 34.21 28.54C34.21 28.67 34.21 28.79 34.21 28.92C34.15 29.02 34.1 29.11 34.03 29.2C33.94 29.27 33.85 29.33 33.75 29.39C33.62 29.39 33.5 29.39 33.37 29.39C32.76 29.06 32.15 28.72 31.55 28.36C31.14 28.11 30.73 27.88 30.31 27.65C30.01 27.48 29.71 27.31 29.41 27.13C29.12 26.96 28.82 26.78 28.52 26.61C28.47 26.58 28.42 26.55 28.36 26.52C28.21 26.43 28.05 26.34 27.89 26.25C27.1 25.79 26.32 25.34 25.54 24.89C25.46 24.76 25.39 24.64 25.31 24.51C25.32 24.37 25.34 24.23 25.35 24.09C25.44 23.97 25.53 23.86 25.64 23.76C25.82 23.64 26.02 23.53 26.22 23.43C26.34 23.36 26.45 23.3 26.57 23.24C26.61 23.22 26.61 23.22 26.65 23.19C26.91 23.05 27.16 22.91 27.41 22.76C27.8 22.52 28.19 22.3 28.58 22.08C28.99 21.84 29.4 21.61 29.81 21.37C30.21 21.13 30.62 20.9 31.03 20.67C31.45 20.42 31.88 20.18 32.3 19.93C32.34 19.91 32.39 19.88 32.43 19.86C32.69 19.71 32.69 19.71 32.94 19.56C32.98 19.53 33.02 19.51 33.06 19.48C33.1 19.46 33.14 19.43 33.17 19.41C33.28 19.35 33.28 19.35 33.38 19.32C33.46 19.31 33.46 19.31 33.56 19.31Z" fill="#FFFFFF" fill-opacity="1.000000" fill-rule="nonzero"/>
		<path id="path" d="M33.84 19.35C33.95 19.45 34.06 19.54 34.17 19.64C34.2 19.77 34.23 19.91 34.26 20.06C34.15 20.33 34.01 20.56 33.84 20.8C33.81 20.84 33.78 20.88 33.76 20.92C33.7 21 33.65 21.08 33.59 21.16C33.48 21.33 33.36 21.49 33.25 21.66C33.21 21.72 33.16 21.78 33.12 21.84C33.1 21.87 33.08 21.9 33.06 21.94C33.02 22 32.97 22.06 32.93 22.12C32.58 22.63 32.22 23.15 31.87 23.67C31.9 23.67 31.93 23.67 31.96 23.67C32.85 23.73 33.7 23.86 34.54 24.18C35.1 24.4 35.63 24.69 36.11 25.06C36.31 25.23 36.51 25.41 36.7 25.59C36.73 25.62 36.77 25.65 36.8 25.69C37.2 26.06 37.5 26.51 37.78 26.98C38.1 27.56 38.33 28.17 38.49 28.82C38.59 29.33 38.64 29.83 38.63 30.36C38.63 30.42 38.63 30.48 38.63 30.54C38.63 31.2 38.53 31.79 38.34 32.42C38.13 33.07 37.86 33.71 37.46 34.27C37.1 34.77 36.66 35.24 36.18 35.62C35.61 36.05 34.97 36.39 34.29 36.64C33.79 36.8 33.23 36.97 32.7 36.99C32.61 36.99 32.61 36.99 32.52 36.99C32.47 36.99 32.47 36.99 32.42 36.99C32.31 36.99 32.2 36.99 32.09 36.99C32.01 36.99 31.93 36.99 31.85 36.99C31.64 36.99 31.42 36.99 31.2 36.98C30.97 36.98 30.73 36.98 30.5 36.98C30.09 36.98 29.68 36.98 29.27 36.98C28.69 36.98 28.1 36.98 27.51 36.98C26.55 36.98 25.6 36.98 24.64 36.98C23.71 36.98 22.79 36.98 21.86 36.98C21.8 36.98 21.74 36.98 21.68 36.98C21.4 36.98 21.11 36.98 20.82 36.98C18.44 36.98 16.06 36.98 13.68 36.98C13.47 36.81 13.47 36.81 13.4 36.75C13.34 36.64 13.34 36.64 13.31 36.56C13.31 36.43 13.31 36.31 13.31 36.18C13.43 35.98 13.43 35.98 13.5 35.9C13.59 35.84 13.68 35.78 13.78 35.71C13.82 35.71 13.85 35.71 13.9 35.71C16.22 35.71 18.55 35.71 20.88 35.7C21.16 35.7 21.44 35.7 21.72 35.7C21.78 35.7 21.83 35.7 21.89 35.7C22.79 35.7 23.7 35.7 24.6 35.7C25.52 35.7 26.45 35.69 27.37 35.69C27.94 35.69 28.51 35.69 29.08 35.69C29.48 35.69 29.87 35.69 30.26 35.69C30.49 35.69 30.71 35.69 30.94 35.69C31.14 35.69 31.35 35.69 31.56 35.69C31.63 35.69 31.71 35.69 31.78 35.69C32.37 35.69 32.94 35.62 33.51 35.46C33.58 35.44 33.64 35.42 33.7 35.4C33.74 35.39 33.77 35.38 33.81 35.36C34.28 35.19 34.71 34.96 35.12 34.66C35.57 34.31 35.99 33.93 36.32 33.46C36.63 33 36.89 32.49 37.06 31.96C37.26 31.25 37.28 30.59 37.27 29.87C37.25 29.57 37.21 29.3 37.12 29.01C37.11 28.98 37.1 28.94 37.09 28.91C36.93 28.36 36.72 27.88 36.41 27.4C36.1 26.94 35.73 26.53 35.31 26.18C34.89 25.85 34.41 25.6 33.92 25.41C33.5 25.25 33.07 25.11 32.62 25.07C32.37 25.06 32.12 25.07 31.87 25.07C31.9 25.12 31.93 25.16 31.96 25.2C32.29 25.66 32.61 26.13 32.92 26.59C33.13 26.9 33.33 27.2 33.54 27.5C33.59 27.57 33.59 27.57 33.65 27.64C33.71 27.74 33.77 27.83 33.84 27.92C33.98 28.12 34.11 28.32 34.21 28.54C34.21 28.67 34.21 28.79 34.21 28.92C34.15 29.02 34.1 29.11 34.03 29.2C33.94 29.27 33.85 29.33 33.75 29.39C33.62 29.39 33.5 29.39 33.37 29.39C32.76 29.06 32.15 28.72 31.55 28.36C31.14 28.11 30.73 27.88 30.31 27.65C30.01 27.48 29.71 27.31 29.41 27.13C29.12 26.96 28.82 26.78 28.52 26.61C28.47 26.58 28.42 26.55 28.36 26.52C28.21 26.43 28.05 26.34 27.89 26.25C27.1 25.79 26.32 25.34 25.54 24.89C25.46 24.76 25.39 24.64 25.31 24.51C25.32 24.37 25.34 24.23 25.35 24.09C25.44 23.97 25.53 23.86 25.64 23.76C25.82 23.64 26.02 23.53 26.22 23.43C26.34 23.36 26.45 23.3 26.57 23.24C26.61 23.22 26.61 23.22 26.65 23.19C26.91 23.05 27.16 22.91 27.41 22.76C27.8 22.52 28.19 22.3 28.58 22.08C28.99 21.84 29.4 21.61 29.81 21.37C30.21 21.13 30.62 20.9 31.03 20.67C31.45 20.42 31.88 20.18 32.3 19.93C32.34 19.91 32.39 19.88 32.43 19.86C32.69 19.71 32.69 19.71 32.94 19.56C32.98 19.53 33.02 19.51 33.06 19.48C33.1 19.46 33.14 19.43 33.17 19.41C33.28 19.35 33.28 19.35 33.38 19.32C33.46 19.31 33.46 19.31 33.56 19.31C33.7 19.33 33.7 19.33 33.84 19.35Z" stroke="#FFFFFF" stroke-opacity="1.000000" stroke-width="0.500000"/>
		<path id="path" d="M16.81 11.71C16.91 11.71 17 11.71 17.1 11.71C17.37 11.71 17.63 11.71 17.9 11.71C18.13 11.71 18.36 11.71 18.59 11.71C21.51 11.71 24.43 11.72 27.35 11.73C27.89 11.74 28.42 11.74 28.95 11.74C28.99 11.74 29.02 11.74 29.06 11.74C29.26 11.74 29.45 11.74 29.64 11.74C31.19 11.75 32.75 11.75 34.31 11.76C34.35 11.81 34.4 11.85 34.45 11.9C34.45 11.93 34.45 11.96 34.45 12C34.49 12.01 34.54 12.03 34.59 12.04C34.6 12.07 34.62 12.1 34.64 12.14C34.64 12.29 34.64 12.45 34.64 12.6C34.57 12.68 34.51 12.76 34.45 12.84C34.39 12.87 34.32 12.9 34.26 12.93C34.22 12.93 34.18 12.93 34.14 12.93C31.84 12.94 29.54 12.94 27.23 12.94C26.96 12.94 26.68 12.94 26.4 12.95C26.32 12.95 26.32 12.95 26.23 12.95C25.34 12.95 24.45 12.95 23.56 12.95C22.65 12.95 21.73 12.95 20.81 12.95C20.25 12.96 19.69 12.96 19.12 12.96C18.73 12.96 18.35 12.96 17.96 12.96C17.74 12.96 17.51 12.96 17.29 12.96C15.84 12.95 15.84 12.95 14.42 13.22C13.87 13.4 13.35 13.67 12.88 14C12.63 14.19 12.41 14.4 12.18 14.62C12.15 14.66 12.11 14.69 12.07 14.73C11.73 15.09 11.47 15.5 11.24 15.93C10.98 16.46 10.81 17.03 10.7 17.61C10.69 17.73 10.68 17.83 10.68 17.95C10.68 18.01 10.68 18.07 10.68 18.13C10.67 18.7 10.72 19.26 10.87 19.82C11.03 20.33 11.25 20.82 11.53 21.28C11.66 21.47 11.8 21.66 11.95 21.84C11.98 21.87 12 21.91 12.03 21.94C12.31 22.28 12.66 22.55 13.03 22.8C13.51 23.11 14.01 23.35 14.56 23.52C15.12 23.68 15.68 23.73 16.26 23.76C16.01 23.36 15.75 22.98 15.48 22.59C15.38 22.44 15.27 22.28 15.16 22.12C15.12 22.06 15.07 22 15.03 21.93C14.45 21.09 14.45 21.09 13.87 20.25C13.87 20.08 13.87 19.9 13.87 19.73C13.95 19.64 14.02 19.54 14.1 19.45C14.18 19.42 14.26 19.39 14.34 19.35C14.48 19.36 14.58 19.37 14.71 19.4C14.92 19.5 15.12 19.62 15.32 19.74C15.38 19.77 15.43 19.8 15.49 19.84C15.61 19.91 15.73 19.98 15.85 20.05C16.06 20.17 16.28 20.3 16.49 20.42C16.64 20.51 16.79 20.59 16.94 20.68C17.15 20.8 17.35 20.91 17.55 21.03C18.09 21.34 18.63 21.65 19.16 21.97C19.51 22.17 19.85 22.37 20.2 22.57C20.6 22.8 21.01 23.04 21.42 23.27C21.46 23.3 21.51 23.32 21.55 23.35C21.64 23.4 21.72 23.45 21.81 23.5C21.89 23.55 21.98 23.6 22.06 23.65C22.11 23.67 22.15 23.7 22.19 23.72C22.23 23.74 22.26 23.77 22.3 23.79C22.4 23.85 22.47 23.92 22.55 24.01C22.58 24.05 22.61 24.09 22.64 24.14C22.64 24.28 22.64 24.41 22.64 24.56C22.57 24.65 22.51 24.74 22.45 24.84C22.42 24.86 22.39 24.87 22.35 24.89C22.21 24.98 22.06 25.06 21.91 25.15C21.88 25.17 21.85 25.18 21.83 25.2C21.44 25.42 21.06 25.64 20.67 25.87C20.23 26.13 19.79 26.38 19.34 26.63C19.02 26.81 18.71 27 18.39 27.18C18.05 27.39 17.7 27.59 17.34 27.79C16.43 28.31 16.43 28.31 15.51 28.85C15.47 28.88 15.42 28.9 15.37 28.93C15.28 28.99 15.19 29.04 15.09 29.1C15.05 29.12 15.01 29.15 14.97 29.17C14.93 29.19 14.89 29.22 14.86 29.24C14.76 29.29 14.76 29.29 14.62 29.34C14.51 29.34 14.4 29.34 14.29 29.34C14.19 29.28 14.19 29.28 14.06 29.2C13.95 29.07 13.95 29.07 13.87 28.96C13.87 28.81 13.87 28.65 13.87 28.5C14.31 27.83 14.75 27.18 15.2 26.53C15.54 26.03 15.88 25.53 16.21 25.03C16.19 25.02 16.16 25.02 16.13 25.02C15.28 24.97 14.45 24.87 13.64 24.57C13.1 24.36 12.6 24.09 12.13 23.75C12 23.64 11.88 23.54 11.76 23.43C11.72 23.4 11.68 23.37 11.64 23.33C11.19 22.93 10.77 22.49 10.45 21.98C10.09 21.4 9.8 20.8 9.61 20.14C9.6 20.11 9.6 20.08 9.59 20.04C9.43 19.47 9.4 18.91 9.4 18.32C9.4 18.28 9.4 18.25 9.4 18.21C9.4 17.65 9.44 17.13 9.6 16.59C9.61 16.56 9.62 16.53 9.63 16.5C9.8 15.9 10.05 15.33 10.39 14.81C10.77 14.22 11.22 13.68 11.76 13.23C12.31 12.79 12.91 12.44 13.56 12.17C13.92 12.03 14.29 11.94 14.67 11.85C14.74 11.84 14.74 11.84 14.81 11.82C15.47 11.69 16.14 11.71 16.81 11.71Z" fill="#FFFFFF" fill-opacity="1.000000" fill-rule="nonzero"/>
		<path id="path" d="M17.1 11.71C17.37 11.71 17.63 11.71 17.9 11.71C18.13 11.71 18.36 11.71 18.59 11.71C21.51 11.71 24.43 11.72 27.35 11.73C27.89 11.74 28.42 11.74 28.95 11.74C28.99 11.74 29.02 11.74 29.06 11.74C29.26 11.74 29.45 11.74 29.64 11.74C31.19 11.75 32.75 11.75 34.31 11.76C34.35 11.81 34.4 11.85 34.45 11.9C34.45 11.93 34.45 11.96 34.45 12C34.49 12.01 34.54 12.03 34.59 12.04C34.6 12.07 34.62 12.1 34.64 12.14C34.64 12.29 34.64 12.45 34.64 12.6C34.57 12.68 34.51 12.76 34.45 12.84C34.39 12.87 34.32 12.9 34.26 12.93C34.22 12.93 34.18 12.93 34.14 12.93C31.84 12.94 29.54 12.94 27.23 12.94C26.96 12.94 26.68 12.94 26.4 12.95C26.32 12.95 26.32 12.95 26.23 12.95C25.34 12.95 24.45 12.95 23.56 12.95C22.65 12.95 21.73 12.95 20.81 12.95C20.25 12.96 19.69 12.96 19.12 12.96C18.73 12.96 18.35 12.96 17.96 12.96C17.74 12.96 17.51 12.96 17.29 12.96C15.84 12.95 15.84 12.95 14.42 13.22C13.87 13.4 13.35 13.67 12.88 14C12.63 14.19 12.41 14.4 12.18 14.62C12.15 14.66 12.11 14.69 12.07 14.73C11.73 15.09 11.47 15.5 11.24 15.93C10.98 16.46 10.81 17.03 10.7 17.61C10.69 17.73 10.68 17.83 10.68 17.95C10.68 18.01 10.68 18.07 10.68 18.13C10.67 18.7 10.72 19.26 10.87 19.82C11.03 20.33 11.25 20.82 11.53 21.28C11.66 21.47 11.8 21.66 11.95 21.84C11.98 21.87 12 21.91 12.03 21.94C12.31 22.28 12.66 22.55 13.03 22.8C13.51 23.11 14.01 23.35 14.56 23.52C15.12 23.68 15.68 23.73 16.26 23.76C16.01 23.36 15.75 22.98 15.48 22.59C15.38 22.44 15.27 22.28 15.16 22.12C15.12 22.06 15.07 22 15.03 21.93C14.45 21.09 14.45 21.09 13.87 20.25C13.87 20.08 13.87 19.9 13.87 19.73C13.95 19.64 14.02 19.54 14.1 19.45C14.18 19.42 14.26 19.39 14.34 19.35C14.48 19.36 14.58 19.37 14.71 19.4C14.92 19.5 15.12 19.62 15.32 19.74C15.38 19.77 15.43 19.8 15.49 19.84C15.61 19.91 15.73 19.98 15.85 20.05C16.06 20.17 16.28 20.3 16.49 20.42C16.64 20.51 16.79 20.59 16.94 20.68C17.15 20.8 17.35 20.91 17.55 21.03C18.09 21.34 18.63 21.65 19.16 21.97C19.51 22.17 19.85 22.37 20.2 22.57C20.6 22.8 21.01 23.04 21.42 23.27C21.46 23.3 21.51 23.32 21.55 23.35C21.64 23.4 21.72 23.45 21.81 23.5C21.89 23.55 21.98 23.6 22.06 23.65C22.11 23.67 22.15 23.7 22.19 23.72C22.23 23.74 22.26 23.77 22.3 23.79C22.4 23.85 22.47 23.92 22.55 24.01C22.58 24.05 22.61 24.09 22.64 24.14C22.64 24.28 22.64 24.41 22.64 24.56C22.57 24.65 22.51 24.74 22.45 24.84C22.42 24.86 22.39 24.87 22.35 24.89C22.21 24.98 22.06 25.06 21.91 25.15C21.88 25.17 21.85 25.18 21.83 25.2C21.44 25.42 21.06 25.64 20.67 25.87C20.23 26.13 19.79 26.38 19.34 26.63C19.02 26.81 18.71 27 18.39 27.18C18.05 27.39 17.7 27.59 17.34 27.79C16.43 28.31 16.43 28.31 15.51 28.85C15.47 28.88 15.42 28.9 15.37 28.93C15.28 28.99 15.19 29.04 15.09 29.1C15.05 29.12 15.01 29.15 14.97 29.17C14.93 29.19 14.89 29.22 14.86 29.24C14.76 29.29 14.76 29.29 14.62 29.34C14.51 29.34 14.4 29.34 14.29 29.34C14.19 29.28 14.19 29.28 14.06 29.2C13.95 29.07 13.95 29.07 13.87 28.96C13.87 28.81 13.87 28.65 13.87 28.5C14.31 27.83 14.75 27.18 15.2 26.53C15.54 26.03 15.88 25.53 16.21 25.03C16.19 25.02 16.16 25.02 16.13 25.02C15.28 24.97 14.45 24.87 13.64 24.57C13.1 24.36 12.6 24.09 12.13 23.75C12 23.64 11.88 23.54 11.76 23.43C11.72 23.4 11.68 23.37 11.64 23.33C11.19 22.93 10.77 22.49 10.45 21.98C10.09 21.4 9.8 20.8 9.61 20.14C9.6 20.11 9.6 20.08 9.59 20.04C9.43 19.47 9.4 18.91 9.4 18.32C9.4 18.28 9.4 18.25 9.4 18.21C9.4 17.65 9.44 17.13 9.6 16.59C9.61 16.56 9.62 16.53 9.63 16.5C9.8 15.9 10.05 15.33 10.39 14.81C10.77 14.22 11.22 13.68 11.76 13.23C12.31 12.79 12.91 12.44 13.56 12.17C13.92 12.03 14.29 11.94 14.67 11.85C14.74 11.84 14.74 11.84 14.81 11.82C15.47 11.69 16.14 11.71 16.81 11.71C16.91 11.71 17 11.71 17.1 11.71Z" stroke="#FFFFFF" stroke-opacity="1.000000" stroke-width="0.500000"/>
	</g>
</svg>
