<svg width="48.000000" height="48.000000" viewBox="0 0 48 48" fill="none" xmlns="http://www.w3.org/2000/svg" xmlns:xlink="http://www.w3.org/1999/xlink">
	<desc>
			Created with Pixso.
	</desc>
	<defs>
		<clipPath id="clip786_9370">
			<rect id="画板 35" rx="14.000000" width="48.000000" height="48.000000" fill="white" fill-opacity="0"/>
		</clipPath>
		<linearGradient x1="24.000975" y1="11.000977" x2="24.000975" y2="30.000002" id="paint_linear_786_9371_0" gradientUnits="userSpaceOnUse">
			<stop offset="0.022901" stop-color="#1C4896" stop-opacity="0.650980"/>
			<stop offset="1.000000" stop-color="#1C4896"/>
		</linearGradient>
	</defs>
	<rect id="画板 35" rx="14.000000" width="48.000000" height="48.000000" fill="#FFFFFF" fill-opacity="1.000000"/>
	<g clip-path="url(#clip786_9370)">
		<path id="矢量 4" d="M15 30L10 29.5L10 11L14 11L22 18.5L26 18.5L34 11L38 11L38 29.5L33 30L33 20.93C33 20.53 32.55 20.29 32.22 20.51L27 24C27 24 25.37 23.5 23.75 23.5C22.12 23.5 20.5 24 20.5 24L15.79 20.57C15.46 20.33 15 20.57 15 20.98L15 30Z" fill="url(#paint_linear_786_9371_0)" fill-opacity="1.000000" fill-rule="evenodd"/>
		<path id="矢量 5" d="M23.32 31L24.67 31C24.82 31 24.92 31.15 24.85 31.28L24.17 32.64C24.1 32.78 23.89 32.78 23.82 32.64L23.14 31.28C23.07 31.15 23.17 31 23.32 31Z" fill="#1C4896" fill-opacity="1.000000" fill-rule="evenodd"/>
		<path id="矢量 6" d="M17.5 32L10 32" stroke="#F39800" stroke-opacity="1.000000" stroke-width="1.000000" stroke-linecap="round"/>
		<path id="矢量 6" d="M37.5 32L30 32" stroke="#F39800" stroke-opacity="1.000000" stroke-width="1.000000" stroke-linecap="round"/>
		<path id="矢量 7" d="M30 34L38 37" stroke="#F39800" stroke-opacity="1.000000" stroke-width="1.000000" stroke-linecap="round"/>
		<path id="矢量 7" d="M18 34L10 37" stroke="#F39800" stroke-opacity="1.000000" stroke-width="1.000000" stroke-linecap="round"/>
	</g>
</svg>
