<?xml version="1.0" standalone="no"?>
<svg xmlns="http://www.w3.org/2000/svg" width="24" height="24"><rect width="24" height="24" opacity="0"></rect><g><path d="M7.51 7.75Q7.2 7.75 6.98 7.54Q6.77 7.32 6.77 7.01Q6.77 6.7 6.98 6.48Q7.2 6.26 7.51 6.26L16.46 6.26Q16.78 6.26 16.99 6.48Q17.21 6.7 17.21 7.01Q17.21 7.32 16.99 7.54Q16.78 7.75 16.46 7.75L7.51 7.75ZM7.51 12.77Q7.2 12.77 6.98 12.55Q6.77 12.34 6.77 12.02Q6.77 11.71 6.98 11.5Q7.2 11.28 7.51 11.28L16.46 11.28Q16.78 11.28 16.99 11.5Q17.21 11.71 17.21 12.02Q17.21 12.34 16.99 12.55Q16.78 12.77 16.46 12.77L7.51 12.77ZM7.51 17.76Q7.2 17.76 6.98 17.54Q6.77 17.33 6.77 17.02Q6.77 16.7 6.98 16.48Q7.2 16.25 7.51 16.25L11.98 16.25Q12.29 16.25 12.5 16.48Q12.72 16.7 12.72 17.02Q12.72 17.33 12.52 17.54Q12.31 17.76 12 17.76L7.51 17.76ZM6 1.01Q5.18 1.01 4.5 1.4Q3.82 1.8 3.41 2.5Q3 3.19 3 4.01L3 19.99Q3 20.81 3.41 21.49Q3.82 22.18 4.5 22.58Q5.18 22.99 6 22.99L18 22.99Q18.82 22.99 19.5 22.58Q20.18 22.18 20.59 21.49Q21 20.81 21 19.99L21 4.01Q21 3.19 20.59 2.5Q20.18 1.8 19.5 1.4Q18.82 1.01 18 1.01L6 1.01Z" fill="rgba(0,0,0,0.9019607843137255)"></path></g></svg>