<svg width="24.000000" height="24.000000" viewBox="0 0 24 24" fill="none" xmlns="http://www.w3.org/2000/svg" xmlns:xlink="http://www.w3.org/1999/xlink">
	<desc>
			Created with Pixso.
	</desc>
	<defs>
		<clipPath id="clip607_9099">
			<rect id="setting_gearshape" width="24.000000" height="24.000000" fill="white" fill-opacity="0"/>
		</clipPath>
	</defs>
	<g clip-path="url(#clip607_9099)">
		<g opacity="0.000000">
			<rect id="rect" width="24.000000" height="24.000000" fill="#000000" fill-opacity="1.000000"/>
		</g>
		<path id="path" d="M12.02 9C12.56 9 13.06 9.13 13.52 9.41C13.98 9.68 14.34 10.05 14.6 10.51C14.86 10.97 15 11.48 15 12.02C15 12.56 14.86 13.06 14.6 13.52C14.34 13.98 13.98 14.34 13.52 14.6C13.06 14.86 12.56 15 12 15C11.45 15 10.95 14.86 10.49 14.59C10.02 14.31 9.66 13.95 9.4 13.49C9.13 13.02 9 12.52 9 11.98C9 11.43 9.13 10.93 9.41 10.48C9.68 10.02 10.05 9.66 10.51 9.39C10.97 9.13 11.48 9 12.02 9ZM12.05 7.51C11.23 7.51 10.47 7.71 9.78 8.1C9.08 8.51 8.53 9.05 8.12 9.72C7.71 10.41 7.51 11.16 7.51 11.98C7.51 12.79 7.71 13.54 8.11 14.24C8.51 14.94 9.05 15.49 9.74 15.9C10.43 16.3 11.18 16.51 12 16.51C12.81 16.51 13.56 16.31 14.26 15.91C14.94 15.51 15.49 14.96 15.9 14.28C16.3 13.59 16.51 12.84 16.51 12.02C16.51 11.2 16.31 10.45 15.91 9.77C15.51 9.08 14.97 8.53 14.29 8.12C13.61 7.71 12.86 7.51 12.05 7.51ZM13.56 22.66C13.86 22.66 14.14 22.57 14.4 22.4C14.65 22.23 14.84 22.01 14.98 21.74L15.79 19.85L15.98 19.75C16.27 19.57 16.56 19.4 16.85 19.21L18.91 19.49C19.23 19.52 19.52 19.46 19.79 19.33C20.07 19.19 20.29 18.99 20.45 18.71L22.03 15.98C22.19 15.71 22.26 15.42 22.24 15.12C22.21 14.81 22.11 14.53 21.94 14.28L20.69 12.6L20.69 11.42L21.94 9.74C22.12 9.48 22.23 9.2 22.25 8.89C22.26 8.6 22.19 8.31 22.03 8.04L20.45 5.28C20.3 5.02 20.09 4.82 19.82 4.67C19.55 4.53 19.26 4.47 18.94 4.51L16.85 4.78C16.56 4.56 16.23 4.37 15.86 4.19L15.02 2.23C14.89 1.95 14.7 1.73 14.45 1.56C14.19 1.38 13.91 1.3 13.61 1.3L10.44 1.3C10.13 1.3 9.85 1.38 9.59 1.56C9.32 1.73 9.12 1.95 9 2.23L8.16 4.19L7.92 4.34C7.79 4.4 7.67 4.47 7.55 4.54C7.43 4.6 7.31 4.67 7.2 4.75L5.09 4.51C4.78 4.46 4.49 4.5 4.21 4.64C3.93 4.78 3.71 4.98 3.55 5.26L1.97 8.02C1.81 8.27 1.74 8.55 1.76 8.87C1.78 9.18 1.88 9.46 2.06 9.72L3.34 11.42L3.34 12.53L2.06 14.23C1.87 14.49 1.77 14.77 1.75 15.07C1.73 15.37 1.81 15.66 1.97 15.94L3.53 18.67C3.69 18.94 3.9 19.14 4.18 19.28C4.44 19.42 4.74 19.47 5.06 19.44L7.13 19.2C7.57 19.48 7.91 19.68 8.14 19.79L8.98 21.72C9.08 22 9.27 22.23 9.53 22.4C9.78 22.57 10.07 22.66 10.39 22.66L13.56 22.66ZM7.08 17.66L4.8 17.9L3.22 15.1L4.58 13.27C4.72 13.05 4.8 12.82 4.8 12.6C4.78 12.4 4.78 12.19 4.78 11.95C4.78 11.71 4.78 11.49 4.8 11.3C4.8 11.04 4.72 10.81 4.58 10.61L3.22 8.74L4.85 5.95L7.15 6.24C7.29 6.25 7.43 6.24 7.55 6.22C7.67 6.18 7.77 6.13 7.87 6.07C8.15 5.86 8.51 5.66 8.93 5.47C9.17 5.34 9.33 5.16 9.43 4.94L10.39 2.78L13.61 2.81L14.52 4.94C14.6 5.15 14.76 5.33 15.02 5.47C15.37 5.63 15.73 5.84 16.1 6.1C16.34 6.26 16.58 6.31 16.82 6.26L19.12 6.02L20.71 8.83L19.37 10.63C19.19 10.82 19.11 11.05 19.15 11.33C19.17 11.53 19.18 11.76 19.18 12.01C19.18 12.25 19.17 12.47 19.15 12.67C19.13 12.93 19.2 13.16 19.37 13.37L20.71 15.19L19.08 17.98L16.85 17.7C16.72 17.69 16.59 17.7 16.45 17.71C16.33 17.74 16.22 17.79 16.12 17.87C15.77 18.13 15.4 18.35 15 18.53C14.88 18.59 14.78 18.66 14.69 18.76C14.59 18.84 14.51 18.94 14.47 19.06L13.56 21.14L10.34 21.12L9.46 19.03C9.34 18.79 9.17 18.61 8.95 18.5C8.63 18.36 8.26 18.15 7.85 17.87C7.67 17.75 7.47 17.69 7.25 17.69L7.08 17.66Z" fill="#000000" fill-opacity="0.901961" fill-rule="nonzero"/>
		<path id="path" d="M12.02 9C12.56 9 13.06 9.13 13.52 9.41C13.98 9.68 14.34 10.05 14.6 10.51C14.86 10.97 15 11.48 15 12.02C15 12.56 14.86 13.06 14.6 13.52C14.34 13.98 13.98 14.34 13.52 14.6C13.06 14.86 12.56 15 12 15C11.45 15 10.95 14.86 10.49 14.59C10.02 14.31 9.66 13.95 9.4 13.49C9.13 13.02 9 12.52 9 11.98C9 11.43 9.13 10.93 9.41 10.48C9.68 10.02 10.05 9.66 10.51 9.39C10.97 9.13 11.48 9 12.02 9ZM12.05 7.51C11.23 7.51 10.47 7.71 9.78 8.1C9.08 8.51 8.53 9.05 8.12 9.72C7.71 10.41 7.51 11.16 7.51 11.98C7.51 12.79 7.71 13.54 8.11 14.24C8.51 14.94 9.05 15.49 9.74 15.9C10.43 16.3 11.18 16.51 12 16.51C12.81 16.51 13.56 16.31 14.26 15.91C14.94 15.51 15.49 14.96 15.9 14.28C16.3 13.59 16.51 12.84 16.51 12.02C16.51 11.2 16.31 10.45 15.91 9.77C15.51 9.08 14.97 8.53 14.29 8.12C13.61 7.71 12.86 7.51 12.05 7.51ZM13.56 22.66C13.86 22.66 14.14 22.57 14.4 22.4C14.65 22.23 14.84 22.01 14.98 21.74L15.79 19.85L15.98 19.75C16.27 19.57 16.56 19.4 16.85 19.21L18.91 19.49C19.23 19.52 19.52 19.46 19.79 19.33C20.07 19.19 20.29 18.99 20.45 18.71L22.03 15.98C22.19 15.71 22.26 15.42 22.24 15.12C22.21 14.81 22.11 14.53 21.94 14.28L20.69 12.6L20.69 11.42L21.94 9.74C22.12 9.48 22.23 9.2 22.25 8.89C22.26 8.6 22.19 8.31 22.03 8.04L20.45 5.28C20.3 5.02 20.09 4.82 19.82 4.67C19.55 4.53 19.26 4.47 18.94 4.51L16.85 4.78C16.56 4.56 16.23 4.37 15.86 4.19L15.02 2.23C14.89 1.95 14.7 1.73 14.45 1.56C14.19 1.38 13.91 1.3 13.61 1.3L10.44 1.3C10.13 1.3 9.85 1.38 9.59 1.56C9.32 1.73 9.12 1.95 9 2.23L8.16 4.19L7.92 4.34C7.79 4.4 7.67 4.47 7.55 4.54C7.43 4.6 7.31 4.67 7.2 4.75L5.09 4.51C4.78 4.46 4.49 4.5 4.21 4.64C3.93 4.78 3.71 4.98 3.55 5.26L1.97 8.02C1.81 8.27 1.74 8.55 1.76 8.87C1.78 9.18 1.88 9.46 2.06 9.72L3.34 11.42L3.34 12.53L2.06 14.23C1.87 14.49 1.77 14.77 1.75 15.07C1.73 15.37 1.81 15.66 1.97 15.94L3.53 18.67C3.69 18.94 3.9 19.14 4.18 19.28C4.44 19.42 4.74 19.47 5.06 19.44L7.13 19.2C7.57 19.48 7.91 19.68 8.14 19.79L8.98 21.72C9.08 22 9.27 22.23 9.53 22.4C9.78 22.57 10.07 22.66 10.39 22.66L13.56 22.66ZM7.08 17.66L4.8 17.9L3.22 15.1L4.58 13.27C4.72 13.05 4.8 12.82 4.8 12.6C4.78 12.4 4.78 12.19 4.78 11.95C4.78 11.71 4.78 11.49 4.8 11.3C4.8 11.04 4.72 10.81 4.58 10.61L3.22 8.74L4.85 5.95L7.15 6.24C7.29 6.25 7.43 6.24 7.55 6.22C7.67 6.18 7.77 6.13 7.87 6.07C8.15 5.86 8.51 5.66 8.93 5.47C9.17 5.34 9.33 5.16 9.43 4.94L10.39 2.78L13.61 2.81L14.52 4.94C14.6 5.15 14.76 5.33 15.02 5.47C15.37 5.63 15.73 5.84 16.1 6.1C16.34 6.26 16.58 6.31 16.82 6.26L19.12 6.02L20.71 8.83L19.37 10.63C19.19 10.82 19.11 11.05 19.15 11.33C19.17 11.53 19.18 11.76 19.18 12.01C19.18 12.25 19.17 12.47 19.15 12.67C19.13 12.93 19.2 13.16 19.37 13.37L20.71 15.19L19.08 17.98L16.85 17.7C16.72 17.69 16.59 17.7 16.45 17.71C16.33 17.74 16.22 17.79 16.12 17.87C15.77 18.13 15.4 18.35 15 18.53C14.88 18.59 14.78 18.66 14.69 18.76C14.59 18.84 14.51 18.94 14.47 19.06L13.56 21.14L10.34 21.12L9.46 19.03C9.34 18.79 9.17 18.61 8.95 18.5C8.63 18.36 8.26 18.15 7.85 17.87C7.67 17.75 7.47 17.69 7.25 17.69L7.08 17.66Z" fill="#000000" fill-opacity="0.200000" fill-rule="nonzero"/>
		<path id="矢量 1" d="M6.5 8.66L6.46 8.78C6.43 8.86 6.39 9.06 6.33 9.38C6.28 9.7 6.23 10.37 6.2 11.37C6.16 12.37 6.15 12.99 6.15 13.23C6.15 13.46 6.16 13.74 6.18 14.06C6.21 14.38 6.22 14.61 6.22 14.75" stroke="#000000" stroke-opacity="1.000000" stroke-width="3.000000" stroke-linecap="round"/>
		<path id="矢量 2" d="M5.79 13.19L5.75 13.25C5.73 13.29 5.66 13.36 5.56 13.48C5.45 13.6 5.35 13.71 5.24 13.81C5.13 13.92 5.06 14.1 5.01 14.38C4.97 14.65 4.96 14.85 4.98 14.99C5 15.14 5 15.28 4.98 15.43C4.96 15.58 4.92 15.67 4.88 15.68C4.84 15.7 4.77 15.63 4.67 15.47" stroke="#000000" stroke-opacity="1.000000" stroke-width="3.000000" stroke-linecap="round"/>
		<path id="矢量 3" d="M5.65 17.08L5.73 17.06C5.78 17.04 5.87 16.98 5.98 16.87C6.1 16.76 6.2 16.65 6.29 16.54C6.39 16.42 6.47 16.19 6.54 15.83C6.61 15.47 6.64 15.2 6.64 15.01C6.64 14.82 6.66 14.65 6.71 14.5C6.76 14.36 6.82 14.27 6.91 14.25C6.99 14.23 7.08 14.31 7.17 14.5C7.27 14.69 7.36 14.84 7.44 14.94C7.52 15.05 7.58 15.17 7.62 15.3C7.65 15.43 7.69 15.56 7.74 15.69C7.8 15.82 7.93 16.01 8.15 16.27C8.37 16.53 8.55 16.69 8.68 16.74C8.81 16.8 8.96 16.86 9.12 16.9C9.29 16.95 9.39 17 9.44 17.06C9.48 17.12 9.44 17.12 9.31 17.08C9.18 17.03 9.01 16.96 8.81 16.88C8.61 16.8 8.43 16.74 8.28 16.72C8.13 16.69 8.06 16.66 8.08 16.64C8.09 16.62 8.18 16.62 8.35 16.63C8.51 16.65 8.65 16.69 8.77 16.76C8.88 16.83 9.01 16.88 9.16 16.92C9.3 16.96 9.53 16.99 9.83 17.03C10.14 17.06 10.36 17.11 10.49 17.19C10.61 17.26 10.71 17.36 10.76 17.49C10.82 17.62 10.86 17.76 10.87 17.92C10.88 18.08 10.8 18.2 10.62 18.29C10.44 18.38 10.27 18.39 10.11 18.33C9.94 18.28 9.87 18.25 9.88 18.27C9.89 18.28 9.96 18.37 10.07 18.53C10.19 18.69 10.29 18.84 10.37 18.97C10.46 19.1 10.56 19.25 10.69 19.4C10.82 19.55 10.95 19.66 11.07 19.73C11.18 19.8 11.3 19.87 11.42 19.95C11.54 20.02 11.66 20.05 11.8 20.05C11.93 20.04 12.04 19.98 12.14 19.86C12.23 19.74 12.33 19.63 12.45 19.53C12.56 19.43 12.68 19.33 12.78 19.25C12.89 19.17 12.98 19.11 13.06 19.08C13.14 19.04 13.12 19.1 12.99 19.26C12.86 19.41 12.73 19.51 12.6 19.57C12.47 19.63 12.22 19.71 11.86 19.8C11.5 19.9 11.29 19.99 11.23 20.09C11.16 20.18 11.1 20.21 11.03 20.18C10.97 20.15 11 20.11 11.14 20.04C11.28 19.97 11.51 19.92 11.81 19.89C12.12 19.85 12.35 19.87 12.49 19.95C12.63 20.02 12.76 20.05 12.89 20.03C13.02 20.01 13.11 19.97 13.17 19.9C13.23 19.84 13.25 19.84 13.23 19.92C13.22 20 13.18 19.96 13.12 19.81C13.07 19.65 13.03 19.48 13 19.29C12.98 19.1 12.96 18.79 12.95 18.38C12.94 17.96 12.94 17.68 12.94 17.53C12.94 17.38 13.11 17.29 13.45 17.26C13.79 17.23 14.04 17.21 14.18 17.18C14.32 17.16 14.46 17.12 14.61 17.07C14.75 17.02 14.9 16.98 15.06 16.94C15.21 16.9 15.27 16.89 15.24 16.89C15.2 16.9 15.12 16.94 14.99 17.01C14.86 17.08 14.75 17.17 14.64 17.28C14.54 17.38 14.47 17.46 14.44 17.51C14.41 17.57 14.44 17.52 14.55 17.37C14.65 17.22 14.82 17.02 15.06 16.76C15.3 16.5 15.47 16.31 15.58 16.21C15.69 16.1 15.82 16.01 15.99 15.94C16.15 15.87 16.31 15.81 16.46 15.75C16.61 15.69 16.76 15.65 16.89 15.62C17.03 15.6 17.11 15.65 17.14 15.75C17.17 15.86 17.16 15.99 17.11 16.13C17.06 16.27 17.01 16.39 16.97 16.5C16.92 16.61 17.07 16.67 17.41 16.69C17.75 16.71 18.03 16.72 18.24 16.72C18.46 16.72 18.63 16.69 18.75 16.63C18.87 16.57 18.95 16.48 19.01 16.37C19.06 16.25 19.12 16.08 19.18 15.87C19.24 15.66 19.3 15.49 19.37 15.38C19.44 15.26 19.47 15.13 19.46 14.98C19.44 14.84 19.37 14.72 19.23 14.62C19.1 14.52 18.96 14.44 18.81 14.36C18.67 14.28 18.41 14.21 18.05 14.14C17.68 14.07 17.39 14.04 17.17 14.04C16.94 14.04 16.82 14.02 16.81 13.98C16.8 13.94 16.83 13.87 16.9 13.75C16.97 13.63 17.04 13.5 17.11 13.36C17.18 13.22 17.26 13.09 17.34 12.99C17.42 12.88 17.51 12.77 17.59 12.64C17.67 12.51 17.75 12.39 17.84 12.28C17.92 12.18 18 12.02 18.08 11.82C18.17 11.62 18.18 11.43 18.12 11.26C18.05 11.08 17.97 10.95 17.85 10.87C17.73 10.78 17.63 10.68 17.54 10.56C17.45 10.45 17.41 10.33 17.42 10.23C17.43 10.12 17.5 10.04 17.63 9.97C17.75 9.9 17.88 9.82 18 9.75C18.11 9.68 18.24 9.62 18.37 9.56C18.51 9.5 18.63 9.43 18.75 9.35C18.86 9.27 18.97 9.19 19.08 9.12C19.18 9.04 19.25 8.91 19.27 8.71C19.29 8.51 19.25 8.32 19.16 8.14C19.06 7.96 18.94 7.83 18.8 7.74C18.66 7.64 18.56 7.53 18.5 7.4C18.44 7.27 18.28 7.17 18.02 7.08C17.76 7 17.53 7.05 17.33 7.22C17.13 7.38 16.99 7.54 16.93 7.69C16.86 7.85 16.78 7.97 16.68 8.08C16.59 8.19 16.48 8.29 16.36 8.38C16.25 8.47 16.13 8.56 16.02 8.62C15.91 8.69 15.82 8.66 15.74 8.55C15.66 8.43 15.59 8.27 15.53 8.07C15.47 7.87 15.42 7.71 15.36 7.6C15.3 7.48 15.2 7.35 15.07 7.21C14.94 7.07 14.78 6.95 14.59 6.86C14.4 6.76 14.29 6.69 14.26 6.65C14.23 6.6 14.3 6.59 14.45 6.63C14.61 6.66 14.76 6.72 14.91 6.81C15.06 6.9 15.13 6.95 15.11 6.95C15.1 6.96 15.02 6.94 14.9 6.89C14.77 6.84 14.65 6.76 14.54 6.65C14.43 6.54 14.31 6.43 14.18 6.31C14.04 6.18 13.88 6.04 13.7 5.87C13.52 5.7 13.37 5.58 13.25 5.5C13.12 5.43 13.04 5.35 13 5.26" stroke="#000000" stroke-opacity="1.000000" stroke-width="3.000000" stroke-linecap="round"/>
		<path id="矢量 4" d="M5.37 9.93L5.33 9.88C5.3 9.84 5.28 9.7 5.26 9.48C5.24 9.25 5.19 9.08 5.12 8.97C5.05 8.86 4.91 8.76 4.71 8.68C4.51 8.59 4.39 8.51 4.34 8.43C4.3 8.35 4.34 8.26 4.48 8.18C4.61 8.1 4.74 8.02 4.87 7.95C4.99 7.88 5.11 7.8 5.21 7.72C5.32 7.64 5.43 7.57 5.55 7.52C5.67 7.48 5.74 7.39 5.77 7.25C5.8 7.12 5.75 7 5.59 6.91C5.44 6.82 5.36 6.79 5.35 6.83C5.35 6.87 5.41 6.91 5.53 6.96C5.66 7.01 5.81 7.1 5.97 7.21C6.14 7.33 6.28 7.44 6.4 7.55C6.52 7.66 6.6 7.78 6.66 7.92C6.72 8.07 6.79 8.2 6.87 8.31C6.96 8.43 7.03 8.56 7.11 8.68C7.18 8.81 7.26 8.93 7.35 9.04C7.44 9.15 7.51 9.18 7.54 9.13C7.58 9.09 7.64 8.98 7.71 8.81C7.78 8.63 7.84 8.47 7.9 8.31C7.96 8.15 8.01 8.01 8.07 7.89C8.13 7.76 8.16 7.64 8.14 7.51C8.13 7.38 8.1 7.25 8.05 7.13C8 7.02 8.08 6.95 8.28 6.93C8.48 6.9 8.66 6.89 8.83 6.89C8.99 6.89 9.14 6.86 9.28 6.78C9.42 6.71 9.55 6.63 9.68 6.55C9.8 6.47 9.99 6.38 10.24 6.29C10.49 6.19 10.79 6.14 11.15 6.13C11.52 6.12 11.87 6.12 12.23 6.12C12.58 6.12 12.83 6.12 12.97 6.12C13.12 6.12 13.23 6.1 13.32 6.07C13.42 6.04 13.4 5.92 13.27 5.71C13.13 5.5 12.97 5.34 12.79 5.22C12.6 5.1 12.38 4.96 12.13 4.78C11.88 4.6 11.69 4.47 11.55 4.38C11.41 4.28 11.27 4.23 11.13 4.22C10.98 4.21 10.85 4.24 10.73 4.32C10.61 4.39 10.52 4.5 10.45 4.64C10.37 4.79 10.35 4.85 10.39 4.82C10.43 4.8 10.49 4.72 10.59 4.58C10.69 4.44 10.8 4.28 10.92 4.11C11.04 3.93 11.27 3.83 11.61 3.81C11.96 3.79 12.2 3.79 12.34 3.82C12.48 3.84 12.62 3.88 12.73 3.92C12.85 3.97 12.96 4.03 13.06 4.1C13.17 4.17 13.25 4.29 13.32 4.46" stroke="#000000" stroke-opacity="1.000000" stroke-width="3.000000" stroke-linecap="round"/>
	</g>
</svg>
