<?xml version="1.0" standalone="no"?>
<svg xmlns="http://www.w3.org/2000/svg" width="24" height="24"><rect width="24" height="24" opacity="0"></rect><g mask="url(#hms_mask_0)"><path d="M19.01 22.01Q19.8 22.01 20.5 21.6Q21.19 21.19 21.6 20.5Q22.01 19.8 22.01 19.01L22.01 4.99Q22.01 4.2 21.6 3.5Q21.19 2.81 20.5 2.4Q19.8 1.99 19.01 1.99L4.99 1.99Q4.2 1.99 3.5 2.4Q2.81 2.81 2.4 3.5Q1.99 4.2 1.99 4.99L1.99 19.01Q1.99 19.8 2.4 20.5Q2.81 21.19 3.5 21.6Q4.2 22.01 4.99 22.01L19.01 22.01Z" fill="rgba(0,0,0,0.9019607843137255)"></path></g><defs><mask id="hms_mask_0"><rect width="24" height="24" fill="#ffffff"></rect><g><path d="M7.1 11.16Q7.44 11.16 7.68 11.41Q7.92 11.66 7.92 12Q7.92 12.34 7.68 12.59Q7.44 12.84 7.1 12.84Q6.77 12.84 6.52 12.59Q6.26 12.34 6.26 12Q6.26 11.66 6.52 11.41Q6.77 11.16 7.1 11.16ZM7.1 15.48Q7.44 15.48 7.68 15.72Q7.92 15.96 7.92 16.32Q7.92 16.66 7.68 16.9Q7.44 17.14 7.1 17.14Q6.77 17.14 6.52 16.9Q6.26 16.66 6.26 16.32Q6.26 15.96 6.52 15.72Q6.77 15.48 7.1 15.48ZM9.48 8.42Q9.17 8.42 8.94 8.21Q8.71 7.99 8.71 7.68Q8.71 7.37 8.94 7.15Q9.17 6.94 9.48 6.94L16.99 6.94Q17.3 6.94 17.52 7.15Q17.74 7.37 17.74 7.68Q17.74 7.99 17.52 8.21Q17.3 8.42 16.97 8.42L9.48 8.42ZM9.48 12.74Q9.17 12.74 8.94 12.53Q8.71 12.31 8.71 12Q8.71 11.69 8.94 11.47Q9.17 11.26 9.48 11.26L16.99 11.26Q17.3 11.26 17.52 11.47Q17.74 11.69 17.74 12Q17.74 12.31 17.51 12.53Q17.28 12.74 16.97 12.74L9.48 12.74ZM9.48 17.06Q9.17 17.06 8.94 16.84Q8.71 16.61 8.71 16.32Q8.71 16.01 8.94 15.78Q9.17 15.55 9.48 15.55L16.99 15.55Q17.3 15.55 17.52 15.78Q17.74 16.01 17.74 16.32Q17.74 16.61 17.51 16.84Q17.28 17.06 16.97 17.06L9.48 17.06ZM7.1 6.86Q7.44 6.86 7.68 7.1Q7.92 7.34 7.92 7.68Q7.92 8.04 7.68 8.28Q7.44 8.52 7.1 8.52Q6.77 8.52 6.52 8.28Q6.26 8.04 6.26 7.68Q6.26 7.34 6.52 7.1Q6.77 6.86 7.1 6.86Z" fill="#000000"></path></g></mask></defs></svg>