<svg width="24.000000" height="24.000000" viewBox="0 0 24 24" fill="none" xmlns="http://www.w3.org/2000/svg" xmlns:xlink="http://www.w3.org/1999/xlink">
	<desc>
			Made by Ya.
	</desc>
	<defs>
		<clipPath id="clip610_8842">
			<rect id="xmark_circle_fill" width="24.000000" height="24.000000" fill="white" fill-opacity="0"/>
		</clipPath>
	</defs>
	<g clip-path="url(#clip610_8842)">
		<g opacity="0.000000">
			<rect id="rect" width="24.000000" height="24.000000" fill="#000000" fill-opacity="1.000000"/>
		</g>
		<rect id="矩形 10" x="2.000000" y="1.000000" rx="4.000000" width="20.000000" height="20.000000" fill="#FFFFFF" fill-opacity="1.000000"/>
		<rect id="矩形 10" x="3.000000" y="2.000000" rx="4.000000" width="18.000000" height="18.000000" stroke="#000000" stroke-opacity="1.000000" stroke-width="2.000000"/>
		<rect id="矩形 11" x="14.000000" y="14.000000" width="9.000000" height="8.000000" fill="#FFFFFF" fill-opacity="1.000000"/>
		<path id="path" d="M17.95 24C17.93 24 17.91 23.99 17.88 23.99C17.86 23.98 17.84 23.98 17.82 23.97C17.8 23.96 17.78 23.95 17.76 23.93C17.74 23.92 17.73 23.9 17.71 23.89C17.7 23.87 17.69 23.85 17.67 23.83C17.66 23.81 17.66 23.79 17.65 23.77C17.64 23.75 17.64 23.73 17.64 23.7C17.64 23.68 17.64 23.66 17.64 23.64L17.64 23.63L18.12 21.06L16.27 21.06C16.22 21.06 16.17 21.05 16.12 21.02C16.08 20.99 16.04 20.96 16.02 20.91C16 20.86 15.99 20.82 16 20.76C16 20.71 16.02 20.67 16.06 20.63L19.79 16.11C19.81 16.09 19.84 16.06 19.87 16.05C19.9 16.03 19.93 16.01 19.96 16C19.99 16 20.03 15.99 20.06 16C20.1 16 20.13 16.01 20.16 16.02C20.19 16.03 20.22 16.05 20.25 16.07C20.27 16.09 20.29 16.12 20.31 16.15C20.33 16.18 20.34 16.21 20.35 16.24C20.35 16.27 20.35 16.31 20.35 16.34C20.35 16.35 20.35 16.35 20.35 16.36L19.87 18.93L21.72 18.93C21.77 18.93 21.82 18.94 21.87 18.97C21.91 19 21.95 19.03 21.97 19.08C21.99 19.13 22 19.18 21.99 19.23C21.99 19.28 21.97 19.32 21.93 19.36L18.2 23.88C18.17 23.92 18.13 23.94 18.09 23.96C18.05 23.98 18 23.99 17.95 24Z" fill="#000000" fill-opacity="1.000000" fill-rule="nonzero"/>
		<rect id="矩形 12" x="20.000000" y="9.000000" rx="1.000000" width="2.000000" height="6.000000" fill="#000000" fill-opacity="1.000000"/>
		<rect id="矩形 13" x="10.000000" y="19.000000" rx="1.000000" width="5.000000" height="2.000000" fill="#000000" fill-opacity="1.000000"/>
		<rect id="矩形 14" x="8.000000" y="16.000000" rx="1.000000" width="8.000000" height="2.000000" fill="#000000" fill-opacity="1.000000"/>
	</g>
</svg>
