<svg width="24.000000" height="24.000000" viewBox="0 0 24 24" fill="none" xmlns="http://www.w3.org/2000/svg" xmlns:xlink="http://www.w3.org/1999/xlink">
	<desc>
		Made by Ya.
	</desc>
	<defs>
		<clipPath id="clip610_8874">
			<rect id="xmark_circle_fill" width="24.000000" height="24.000000" fill="white" fill-opacity="0"/>
		</clipPath>
	</defs>
	<g clip-path="url(#clip610_8874)">
		<g opacity="0.000000">
			<rect id="rect" width="24.000000" height="24.000000" fill="#000000" fill-opacity="1.000000"/>
		</g>
		<path id="多边形 1" d="M11.58 12.18L3 16.08C2.22 16.44 2.22 17.55 3 17.91L11.58 21.81C11.84 21.93 12.15 21.93 12.41 21.81L20.99 17.91C21.77 17.55 21.77 16.44 20.99 16.08L12.41 12.18C12.15 12.06 11.84 12.06 11.58 12.18Z" fill="#FFFFFF" fill-opacity="1.000000" fill-rule="evenodd"/>
		<path id="多边形 1" d="M3 16.08C2.22 16.44 2.22 17.55 3 17.91L11.58 21.81C11.84 21.93 12.15 21.93 12.41 21.81L20.99 17.91C21.77 17.55 21.77 16.44 20.99 16.08L12.41 12.18C12.15 12.06 11.84 12.06 11.58 12.18L3 16.08ZM4.14 17L12 20.57L19.85 17L12 13.42L4.14 17Z" fill="#000000" fill-opacity="1.000000" fill-rule="evenodd"/>
		<path id="多边形 1" d="M11.58 7.18L3 11.08C2.22 11.44 2.22 12.55 3 12.91L11.58 16.81C11.84 16.93 12.15 16.93 12.41 16.81L20.99 12.91C21.77 12.55 21.77 11.44 20.99 11.08L12.41 7.18C12.15 7.06 11.84 7.06 11.58 7.18Z" fill="#FFFFFF" fill-opacity="1.000000" fill-rule="evenodd"/>
		<path id="多边形 1" d="M3 11.08C2.22 11.44 2.22 12.55 3 12.91L11.58 16.81C11.84 16.93 12.15 16.93 12.41 16.81L20.99 12.91C21.77 12.55 21.77 11.44 20.99 11.08L12.41 7.18C12.15 7.06 11.84 7.06 11.58 7.18L3 11.08ZM4.14 12L12 15.57L19.85 12L12 8.42L4.14 12Z" fill="#000000" fill-opacity="1.000000" fill-rule="evenodd"/>
		<path id="多边形 1" d="M11.58 2.18L3 6.08C2.22 6.44 2.22 7.55 3 7.91L11.58 11.81C11.84 11.93 12.15 11.93 12.41 11.81L20.99 7.91C21.77 7.55 21.77 6.44 20.99 6.08L12.41 2.18C12.15 2.06 11.84 2.06 11.58 2.18Z" fill="#FFFFFF" fill-opacity="1.000000" fill-rule="evenodd"/>
		<path id="多边形 1" d="M3 6.08C2.22 6.44 2.22 7.55 3 7.91L11.58 11.81C11.84 11.93 12.15 11.93 12.41 11.81L20.99 7.91C21.77 7.55 21.77 6.44 20.99 6.08L12.41 2.18C12.15 2.06 11.84 2.06 11.58 2.18L3 6.08ZM4.14 7L12 10.57L19.85 7L12 3.42L4.14 7Z" fill="#000000" fill-opacity="1.000000" fill-rule="evenodd"/>
	</g>
</svg>
